<?xml version="1.0" standalone="no"?><!DOCTYPE svg PUBLIC "-//W3C//DTD SVG 1.1//EN" "http://www.w3.org/Graphics/SVG/1.1/DTD/svg11.dtd"><svg height="1024" node-id="1" sillyvg="true" template-height="1024" template-width="1024" version="1.1" viewBox="0 0 1024 1024" width="1024" xmlns="http://www.w3.org/2000/svg" xmlns:xlink="http://www.w3.org/1999/xlink"><defs node-id="128"><clipPath id="SVGID_00000025425354863601635570000004977071849504746687_" node-id="13"><path d="M 194.20 623.50 L 197.30 617.20 L 203.70 607.20 L 212.20 597.10 L 221.60 588.40 L 226.80 584.30 L 232.90 580.20 L 239.70 576.10 L 246.80 572.50 L 254.80 569.10 L 263.70 566.00 L 277.70 562.40 L 285.60 560.90 L 294.20 559.80 L 302.60 559.10 L 311.60 558.80 L 321.30 558.80 L 345.80 560.10 L 359.00 560.40 L 371.40 560.30 L 394.90 558.90 L 416.20 556.30 L 438.40 552.00 L 449.70 549.20 L 459.50 546.40 L 469.30 543.10 L 484.10 537.40 L 493.40 533.20 L 504.30 527.30 L 504.30 579.10 L 486.90 582.30 L 468.00 585.30 L 444.60 588.30 L 418.60 590.50 L 405.20 591.20 L 391.80 591.50 L 380.20 590.80 L 373.60 590.00 L 330.30 582.90 L 318.80 581.40 L 307.20 580.40 L 291.70 580.10 L 284.20 580.60 L 276.70 581.60 L 269.40 583.20 L 262.30 585.30 L 253.90 588.40 L 239.00 594.90 L 228.70 600.10 L 220.10 605.10 L 212.20 610.10 L 200.60 618.30 L 194.20 623.50 Z" fill="#000000" fill-rule="nonzero" node-id="131" stroke="none" target-height="96.20001" target-width="310.09998" target-x="194.2" target-y="527.3"></path></clipPath><clipPath id="SVGID_00000165925174904742826670000002035943914917881779_" node-id="53"><path d="M 597.50 583.70 L 477.50 583.70 L 472.80 593.40 L 470.70 599.30 L 462.50 627.90 L 421.30 759.90 L 405.70 812.20 L 397.40 842.80 L 391.70 867.80 L 390.10 877.10 L 389.40 883.00 L 389.30 887.20 L 389.60 890.10 L 390.70 893.20 L 392.40 896.20 L 394.60 899.10 L 397.50 901.90 L 404.10 906.60 L 412.70 910.80 L 418.80 913.10 L 425.50 915.10 L 432.70 916.70 L 440.00 918.00 L 447.40 918.80 L 455.10 919.30 L 462.70 919.30 L 470.10 919.00 L 477.30 918.20 L 484.50 916.90 L 491.10 915.20 L 497.10 913.10 L 501.50 911.20 L 505.40 908.90 L 508.90 906.50 L 511.90 903.90 L 514.50 900.80 L 516.60 897.50 L 518.20 894.00 L 519.20 890.10 L 517.10 822.10 L 516.50 784.80 L 516.60 748.00 L 517.00 730.10 L 518.70 697.30 L 521.20 674.00 L 523.90 659.20 L 525.70 652.40 L 527.50 647.30 L 529.50 643.40 L 531.40 640.70 L 533.20 639.00 L 535.10 638.00 L 537.10 637.70 L 539.10 638.00 L 541.00 639.00 L 542.90 640.70 L 544.80 643.40 L 546.70 647.30 L 548.60 652.40 L 550.40 659.20 L 553.10 674.00 L 555.50 697.30 L 557.20 730.10 L 557.60 748.00 L 557.80 784.80 L 557.20 822.10 L 555.00 890.10 L 556.00 894.00 L 557.60 897.50 L 559.70 900.80 L 562.40 903.90 L 565.40 906.50 L 568.80 908.90 L 572.70 911.20 L 577.10 913.10 L 583.20 915.20 L 589.70 916.90 L 596.90 918.20 L 604.10 919.00 L 611.50 919.30 L 619.20 919.30 L 626.80 918.80 L 634.30 918.00 L 641.60 916.70 L 648.80 915.10 L 655.40 913.10 L 661.60 910.80 L 670.10 906.60 L 676.70 901.90 L 679.60 899.10 L 681.90 896.20 L 683.50 893.20 L 684.70 890.10 L 684.80 883.00 L 684.20 877.10 L 682.60 867.80 L 680.00 855.70 L 672.90 827.80 L 663.60 795.20 L 653.00 759.90 L 611.80 627.90 L 605.60 606.60 L 603.20 596.70 L 599.60 587.70 L 597.50 583.70 Z" fill="#000000" fill-rule="nonzero" node-id="135" stroke="none" target-height="335.59998" target-width="295.5" target-x="389.3" target-y="583.7"></path></clipPath></defs><g node-id="424"><g node-id="445"><path d="M 194.20 623.50 L 197.30 617.20 L 203.70 607.20 L 212.20 597.10 L 221.60 588.40 L 226.80 584.30 L 232.90 580.20 L 239.70 576.10 L 246.80 572.50 L 254.80 569.10 L 263.70 566.00 L 277.70 562.40 L 285.60 560.90 L 294.20 559.80 L 302.60 559.10 L 311.60 558.80 L 321.30 558.80 L 345.80 560.10 L 359.00 560.40 L 371.40 560.30 L 394.90 558.90 L 416.20 556.30 L 438.40 552.00 L 449.70 549.20 L 459.50 546.40 L 469.30 543.10 L 484.10 537.40 L 493.40 533.20 L 504.30 527.30 L 504.30 579.10 L 486.90 582.30 L 468.00 585.30 L 444.60 588.30 L 418.60 590.50 L 405.20 591.20 L 391.80 591.50 L 380.20 590.80 L 373.60 590.00 L 330.30 582.90 L 318.80 581.40 L 307.20 580.40 L 291.70 580.10 L 284.20 580.60 L 276.70 581.60 L 269.40 583.20 L 262.30 585.30 L 253.90 588.40 L 239.00 594.90 L 228.70 600.10 L 220.10 605.10 L 212.20 610.10 L 200.60 618.30 L 194.20 623.50 Z" fill="#64e6b4" fill-rule="nonzero" group-id="1,22" node-id="144" stroke="none" target-height="96.20001" target-width="310.09998" target-x="194.2" target-y="527.3"></path><path d="M 194.20 624.50 L 193.30 623.80 L 193.30 623.20 L 194.70 620.00 L 199.40 611.70 L 203.00 606.50 L 211.60 596.30 L 220.90 587.60 L 225.80 583.80 L 231.50 579.90 L 238.20 575.90 L 245.10 572.30 L 253.00 568.80 L 262.00 565.50 L 276.10 561.70 L 284.20 560.20 L 293.00 559.00 L 301.60 558.20 L 310.90 557.80 L 321.00 557.80 L 345.70 559.10 L 358.70 559.40 L 370.90 559.30 L 394.20 557.90 L 415.30 555.40 L 437.40 551.10 L 448.60 548.40 L 468.20 542.40 L 483.10 536.70 L 492.50 532.50 L 504.20 526.30 L 505.10 526.80 L 505.20 527.30 L 505.20 579.10 L 505.00 579.70 L 504.40 580.10 L 486.70 583.30 L 467.70 586.30 L 444.30 589.30 L 418.40 591.50 L 405.00 592.20 L 391.80 592.50 L 379.80 591.80 L 373.00 590.90 L 329.50 583.70 L 318.10 582.30 L 306.70 581.30 L 299.00 581.00 L 284.10 581.60 L 276.70 582.60 L 269.60 584.10 L 262.60 586.20 L 254.30 589.30 L 239.70 595.70 L 229.50 600.90 L 220.90 605.80 L 213.00 610.70 L 206.90 614.90 L 194.20 624.50 Z M 315.10 559.70 L 306.30 559.90 L 290.30 561.30 L 283.20 562.40 L 273.70 564.40 L 265.10 566.60 L 257.40 569.20 L 249.90 572.30 L 243.20 575.40 L 231.50 582.30 L 226.60 585.70 L 217.60 593.20 L 210.00 601.00 L 205.30 606.80 L 201.80 611.80 L 197.00 619.90 L 206.10 613.10 L 220.20 603.90 L 228.80 599.00 L 239.00 593.80 L 253.70 587.40 L 261.90 584.30 L 269.00 582.20 L 276.30 580.60 L 283.80 579.60 L 298.90 579.00 L 306.60 579.30 L 318.20 580.30 L 329.70 581.70 L 373.20 588.90 L 380.00 589.80 L 391.80 590.50 L 416.60 589.60 L 441.00 587.60 L 463.30 584.90 L 482.10 582.10 L 503.30 578.30 L 503.30 529.10 L 495.20 533.40 L 480.70 539.90 L 471.40 543.50 L 459.80 547.30 L 449.30 550.30 L 436.50 553.40 L 418.00 556.90 L 396.40 559.70 L 372.20 561.20 L 359.60 561.40 L 346.10 561.10 L 323.20 559.90 L 315.10 559.70 Z" fill="#333333" fill-rule="nonzero" group-id="1,22" node-id="146" stroke="none" target-height="98.20001" target-width="311.90002" target-x="193.3" target-y="526.3"></path></g><g node-id="446"><g clip-path="url(#SVGID_00000025425354863601635570000004977071849504746687_)" group-id="1,23" node-id="151"><path d="M 197.20 619.70 L 201.90 613.40 L 209.30 605.50 L 218.00 598.00 L 223.00 594.30 L 235.70 586.60 L 242.70 583.10 L 250.70 579.80 L 259.70 576.60 L 266.50 574.60 L 281.90 571.30 L 299.10 569.20 L 308.30 568.80 L 318.20 568.70 L 347.30 569.90 L 364.00 570.10 L 379.10 569.80 L 394.30 569.10 L 407.80 567.90 L 419.80 566.50 L 442.40 562.70 L 451.60 560.70 L 468.60 555.90 L 484.50 549.90 L 491.20 546.80 L 497.00 543.70 L 503.20 539.70 L 503.20 578.30 L 480.80 582.20 L 461.70 585.10 L 439.50 587.80 L 415.90 589.80 L 404.00 590.30 L 392.50 590.40 L 381.90 589.80 L 371.00 588.50 L 337.50 582.90 L 326.00 581.10 L 314.50 579.70 L 303.00 579.00 L 295.30 578.90 L 287.60 579.20 L 279.90 580.00 L 272.20 581.40 L 264.60 583.40 L 256.90 586.00 L 239.10 593.70 L 231.60 597.40 L 221.10 603.30 L 212.90 608.30 L 205.70 613.20 L 197.20 619.70 Z" fill="#e4fff8" fill-rule="nonzero" group-id="1,23,37" node-id="153" stroke="none" target-height="80" target-width="306" target-x="197.2" target-y="539.7"></path></g></g><path d="M 466.60 586.00 L 465.80 585.60 L 465.70 584.80 L 472.30 555.00 L 472.70 554.40 L 473.40 554.20 L 474.10 554.70 L 474.20 555.40 L 467.60 585.20 L 467.30 585.80 L 466.60 586.00 Z" fill="#333333" fill-rule="nonzero" group-id="1" node-id="157" stroke="none" target-height="31.799988" target-width="8.5" target-x="465.7" target-y="554.2"></path><path d="M 420.50 590.90 L 419.70 590.40 L 419.60 589.70 L 424.70 566.40 L 425.10 565.80 L 425.90 565.70 L 426.50 566.10 L 426.60 566.90 L 421.50 590.10 L 421.10 590.70 L 420.50 590.90 Z" fill="#333333" fill-rule="nonzero" group-id="1" node-id="159" stroke="none" target-height="25.200012" target-width="7" target-x="419.6" target-y="565.7"></path><path d="M 369.00 589.20 L 368.10 588.80 L 368.00 588.00 L 371.80 570.90 L 372.20 570.30 L 373.00 570.10 L 373.60 570.60 L 373.80 571.30 L 370.00 588.50 L 369.60 589.00 L 369.00 589.20 Z" fill="#333333" fill-rule="nonzero" group-id="1" node-id="161" stroke="none" target-height="19.100037" target-width="5.799988" target-x="368" target-y="570.1"></path><path d="M 332.50 584.10 L 331.70 583.60 L 331.50 582.90 L 334.40 569.90 L 334.80 569.30 L 335.60 569.20 L 336.20 569.60 L 336.40 570.40 L 333.50 583.30 L 333.10 583.80 L 332.50 584.10 Z" fill="#333333" fill-rule="nonzero" group-id="1" node-id="163" stroke="none" target-height="14.899963" target-width="4.899994" target-x="331.5" target-y="569.2"></path><path d="M 292.50 580.40 L 291.60 580.00 L 291.50 579.20 L 293.40 570.50 L 293.80 569.90 L 294.60 569.80 L 295.20 570.20 L 295.30 571.00 L 293.40 579.60 L 293.10 580.20 L 292.50 580.40 Z" fill="#333333" fill-rule="nonzero" group-id="1" node-id="165" stroke="none" target-height="10.600037" target-width="3.7999878" target-x="291.5" target-y="569.8"></path><path d="M 250.30 590.80 L 249.50 590.30 L 249.40 589.60 L 251.50 580.00 L 251.90 579.40 L 252.70 579.20 L 253.30 579.70 L 253.40 580.40 L 251.30 590.00 L 251.00 590.60 L 250.30 590.80 Z" fill="#333333" fill-rule="nonzero" group-id="1" node-id="167" stroke="none" target-height="11.599976" target-width="4" target-x="249.4" target-y="579.2"></path><path d="M 208.80 613.10 L 207.90 612.60 L 207.80 611.90 L 209.10 605.90 L 209.50 605.30 L 210.30 605.20 L 210.90 605.60 L 211.10 606.30 L 209.70 612.30 L 209.40 612.80 L 208.80 613.10 Z" fill="#333333" fill-rule="nonzero" group-id="1" node-id="169" stroke="none" target-height="7.8999634" target-width="3.300003" target-x="207.8" target-y="605.2"></path></g><g node-id="425"><path d="M 685.90 889.10 L 686.10 907.00 L 685.50 916.80 L 684.80 921.50 L 683.90 925.70 L 682.20 930.50 L 681.10 932.30 L 679.80 933.70 L 678.40 934.60 L 676.90 934.90 L 674.20 934.60 L 672.40 933.90 L 670.90 932.90 L 666.30 927.70 L 664.70 926.60 L 662.90 926.00 L 660.10 925.80 L 658.50 926.00 L 656.00 927.20 L 653.50 930.60 L 650.50 936.50 L 649.30 938.00 L 647.20 939.20 L 644.40 939.20 L 642.50 938.20 L 641.60 937.00 L 638.50 930.90 L 636.30 929.20 L 633.20 928.70 L 631.40 928.90 L 629.10 929.90 L 627.90 931.20 L 627.00 932.60 L 624.70 937.20 L 622.80 938.90 L 620.00 939.40 L 616.50 938.50 L 613.90 936.10 L 610.90 930.80 L 609.20 929.50 L 608.10 929.30 L 605.90 930.00 L 605.00 930.90 L 600.30 937.80 L 598.10 939.10 L 596.70 939.40 L 595.30 939.20 L 593.10 938.10 L 591.80 936.70 L 587.90 929.70 L 586.80 928.40 L 584.80 927.30 L 583.60 927.10 L 582.30 927.30 L 580.20 928.40 L 578.90 929.70 L 575.10 935.00 L 573.60 936.70 L 571.60 938.10 L 568.50 939.20 L 566.30 939.40 L 564.20 939.00 L 562.30 938.10 L 560.60 936.50 L 557.90 932.20 L 555.60 924.60 L 554.70 919.40 L 553.80 908.60 L 553.60 898.70 L 554.00 888.60 L 685.90 889.10 Z" fill="#40cf99" fill-rule="nonzero" group-id="2" node-id="174" stroke="none" target-height="50.80005" target-width="132.5" target-x="553.6" target-y="888.6"></path><path d="M 645.80 940.40 L 643.90 940.10 L 642.50 939.50 L 641.40 938.50 L 637.40 931.10 L 635.10 929.90 L 633.20 929.70 L 631.40 929.90 L 629.10 931.30 L 628.30 932.30 L 625.80 937.40 L 624.90 938.60 L 623.70 939.60 L 622.20 940.20 L 620.00 940.40 L 617.60 940.00 L 615.80 939.20 L 613.20 936.70 L 609.90 931.20 L 609.10 930.50 L 608.10 930.30 L 606.80 930.60 L 605.70 931.60 L 602.00 937.30 L 599.80 939.50 L 598.40 940.10 L 596.70 940.40 L 594.60 940.10 L 593.00 939.30 L 591.60 938.10 L 590.50 936.60 L 586.50 929.50 L 585.60 928.70 L 583.60 928.10 L 582.00 928.40 L 580.60 929.30 L 575.50 936.20 L 573.80 937.80 L 571.80 939.10 L 568.50 940.20 L 566.30 940.40 L 563.00 939.60 L 560.00 937.40 L 558.60 935.50 L 556.10 930.30 L 554.80 925.70 L 553.80 920.40 L 552.80 909.60 L 552.60 899.50 L 553.10 887.60 L 686.90 888.10 L 687.30 899.40 L 687.10 908.70 L 686.20 918.70 L 684.40 927.60 L 683.40 930.20 L 681.20 933.80 L 679.80 935.00 L 678.40 935.70 L 676.90 935.90 L 674.40 935.70 L 671.00 934.30 L 665.10 928.00 L 662.20 926.90 L 660.10 926.80 L 658.30 927.10 L 657.00 927.80 L 654.90 930.20 L 651.50 936.70 L 650.40 938.20 L 649.20 939.30 L 647.70 940.10 L 645.80 940.40 Z M 633.50 927.70 L 635.90 928.00 L 637.60 928.70 L 638.90 929.80 L 639.90 931.10 L 643.00 937.20 L 644.60 938.20 L 647.10 938.10 L 648.20 937.60 L 650.30 934.80 L 653.30 929.00 L 654.50 927.30 L 656.00 926.00 L 658.50 925.00 L 662.70 924.90 L 664.60 925.50 L 666.20 926.30 L 667.50 927.40 L 671.20 931.80 L 673.40 933.30 L 676.90 933.90 L 678.80 933.30 L 680.90 930.80 L 681.90 928.60 L 683.90 921.20 L 684.60 916.00 L 685.20 905.30 L 685.00 890.10 L 555.00 889.60 L 554.70 905.90 L 555.50 917.50 L 556.30 923.30 L 557.60 928.30 L 558.70 931.50 L 560.00 934.10 L 561.50 936.10 L 563.00 937.40 L 564.60 938.10 L 566.30 938.40 L 568.90 938.10 L 570.90 937.30 L 574.00 934.80 L 579.30 927.80 L 581.90 926.30 L 583.60 926.10 L 585.40 926.40 L 586.80 927.10 L 588.00 928.20 L 589.00 929.50 L 592.10 935.40 L 594.00 937.50 L 595.20 938.10 L 596.70 938.40 L 598.90 937.70 L 600.90 935.40 L 604.50 929.90 L 606.70 928.50 L 608.10 928.30 L 609.40 928.50 L 611.30 929.70 L 614.70 935.40 L 616.80 937.50 L 618.20 938.10 L 620.00 938.40 L 621.60 938.20 L 623.50 937.20 L 626.60 931.20 L 627.60 929.90 L 629.00 928.80 L 630.70 928.00 L 633.50 927.70 Z" fill="#333333" fill-rule="nonzero" group-id="2" node-id="176" stroke="none" target-height="52.80005" target-width="134.70001" target-x="552.6" target-y="887.6"></path></g><g node-id="426"><path d="M 388.30 889.10 L 388.00 907.00 L 388.70 916.80 L 389.40 921.50 L 390.30 925.70 L 392.00 930.50 L 394.30 933.70 L 395.70 934.60 L 397.30 934.90 L 400.00 934.60 L 401.80 933.90 L 403.30 932.90 L 407.90 927.70 L 409.40 926.60 L 411.30 926.00 L 414.10 925.80 L 415.70 926.00 L 418.10 927.20 L 419.50 928.70 L 420.70 930.60 L 423.70 936.50 L 424.90 938.00 L 427.00 939.20 L 429.80 939.20 L 431.60 938.20 L 432.60 937.00 L 435.70 930.90 L 437.90 929.20 L 441.00 928.70 L 442.80 928.90 L 445.10 929.90 L 446.30 931.20 L 447.20 932.60 L 449.40 937.20 L 451.40 938.90 L 454.20 939.40 L 457.70 938.50 L 460.30 936.10 L 463.30 930.80 L 465.00 929.50 L 466.10 929.30 L 468.30 930.00 L 469.20 930.90 L 473.90 937.80 L 476.10 939.10 L 477.50 939.40 L 478.90 939.20 L 481.10 938.10 L 482.40 936.70 L 486.30 929.70 L 487.40 928.40 L 489.40 927.30 L 490.60 927.10 L 491.90 927.30 L 494.00 928.40 L 495.20 929.70 L 499.00 935.00 L 500.60 936.70 L 502.50 938.10 L 505.70 939.20 L 507.80 939.40 L 510.00 939.00 L 511.90 938.10 L 513.60 936.50 L 516.30 932.20 L 518.60 924.60 L 519.50 919.40 L 520.40 908.60 L 520.60 898.70 L 520.20 888.60 L 388.30 889.10 Z" fill="#40cf99" fill-rule="nonzero" group-id="3" node-id="181" stroke="none" target-height="50.80005" target-width="132.59998" target-x="388" target-y="888.6"></path><path d="M 507.90 940.40 L 503.90 939.80 L 500.40 937.80 L 498.70 936.20 L 493.50 929.30 L 492.20 928.40 L 490.60 928.10 L 488.50 928.70 L 487.70 929.50 L 483.70 936.60 L 482.50 938.10 L 481.20 939.30 L 479.60 940.10 L 477.50 940.40 L 475.80 940.10 L 473.20 938.50 L 468.50 931.60 L 467.30 930.60 L 466.10 930.30 L 465.10 930.50 L 464.30 931.20 L 461.00 936.70 L 458.40 939.20 L 456.60 940.00 L 454.20 940.40 L 452.10 940.20 L 450.50 939.60 L 449.30 938.60 L 448.40 937.40 L 445.90 932.30 L 445.10 931.30 L 442.80 929.90 L 441.00 929.70 L 439.10 929.90 L 437.80 930.30 L 436.80 931.10 L 436.00 932.20 L 433.60 937.40 L 431.70 939.50 L 430.30 940.10 L 428.40 940.40 L 426.50 940.10 L 425.00 939.30 L 422.70 936.70 L 419.30 930.20 L 418.30 928.80 L 417.20 927.80 L 415.80 927.10 L 414.10 926.80 L 412.00 926.90 L 409.10 928.00 L 408.10 928.80 L 404.30 933.30 L 401.60 935.10 L 399.80 935.70 L 397.30 935.90 L 395.80 935.60 L 394.30 935.00 L 393.00 933.80 L 391.80 932.20 L 389.80 927.60 L 388.70 923.40 L 387.90 918.70 L 387.10 908.70 L 386.90 899.40 L 387.30 888.10 L 521.10 887.60 L 521.60 899.50 L 521.40 909.60 L 520.40 920.40 L 519.40 925.70 L 518.10 930.30 L 516.90 933.20 L 514.20 937.40 L 511.20 939.60 L 507.90 940.40 Z M 490.60 926.10 L 492.30 926.30 L 494.90 927.80 L 500.20 934.80 L 503.30 937.30 L 505.30 938.10 L 507.90 938.40 L 509.60 938.10 L 511.20 937.40 L 512.70 936.10 L 514.20 934.10 L 515.50 931.50 L 516.60 928.30 L 517.90 923.30 L 518.70 917.50 L 519.50 905.90 L 519.20 889.60 L 389.20 890.10 L 389.00 905.30 L 389.60 916.00 L 390.30 921.20 L 392.20 928.60 L 394.50 932.40 L 396.40 933.70 L 399.30 933.70 L 400.80 933.30 L 403.00 931.80 L 406.70 927.40 L 408.00 926.30 L 409.60 925.50 L 411.50 924.90 L 414.10 924.80 L 417.10 925.40 L 419.70 927.30 L 420.90 928.90 L 425.10 936.60 L 427.10 938.10 L 428.40 938.40 L 430.50 937.80 L 432.10 936.00 L 434.30 931.10 L 435.30 929.70 L 437.80 928.10 L 441.00 927.70 L 443.50 928.00 L 445.20 928.80 L 446.50 929.90 L 447.50 931.20 L 450.70 937.20 L 452.60 938.20 L 456.00 938.10 L 457.40 937.50 L 459.50 935.40 L 462.90 929.70 L 464.80 928.50 L 466.10 928.30 L 467.50 928.50 L 469.70 929.90 L 474.40 936.90 L 475.30 937.70 L 477.40 938.40 L 479.00 938.10 L 481.20 936.60 L 486.20 928.20 L 487.40 927.10 L 488.80 926.40 L 490.60 926.10 Z" fill="#333333" fill-rule="nonzero" group-id="3" node-id="183" stroke="none" target-height="52.80005" target-width="134.69998" target-x="386.9" target-y="887.6"></path></g><path d="M 665.00 310.20 L 655.60 319.40 L 648.90 325.60 L 641.90 331.00 L 638.60 333.00 L 635.80 334.30 L 633.90 334.70 L 632.50 334.70 L 631.40 334.20 L 629.30 332.50 L 626.60 330.90 L 623.20 329.50 L 615.70 327.80 L 611.40 327.30 L 604.90 327.10 L 598.30 327.50 L 593.90 328.10 L 586.10 330.10 L 582.50 331.60 L 579.60 333.30 L 577.20 335.10 L 575.70 336.80 L 574.70 338.60 L 574.10 340.50 L 573.80 343.80 L 574.10 344.90 L 575.90 347.80 L 578.80 351.20 L 580.60 353.90 L 580.70 355.80 L 579.30 357.60 L 577.50 358.60 L 567.80 360.40 L 557.80 361.70 L 547.60 362.60 L 537.10 362.90 L 526.60 362.60 L 516.40 361.70 L 506.50 360.40 L 496.80 358.60 L 495.00 357.60 L 493.60 355.80 L 493.70 353.90 L 495.40 351.20 L 498.40 347.80 L 500.20 344.90 L 500.50 343.80 L 500.20 340.50 L 499.60 338.60 L 498.50 336.80 L 497.00 335.10 L 494.70 333.30 L 491.70 331.60 L 488.10 330.10 L 480.30 328.10 L 476.00 327.50 L 469.40 327.10 L 462.80 327.30 L 458.50 327.80 L 451.10 329.50 L 447.60 330.90 L 445.00 332.50 L 442.90 334.20 L 441.70 334.70 L 440.20 334.70 L 438.40 334.20 L 435.60 333.00 L 432.20 330.90 L 425.20 325.40 L 408.60 309.70 L 408.10 312.20 L 406.60 326.70 L 405.20 334.00 L 402.50 344.30 L 399.10 354.50 L 398.20 358.50 L 397.90 362.20 L 398.10 369.30 L 401.70 385.80 L 402.40 392.80 L 402.10 395.70 L 400.50 402.00 L 399.60 407.50 L 397.70 429.60 L 397.10 457.20 L 397.80 475.20 L 398.50 483.60 L 400.50 495.50 L 402.70 502.20 L 403.80 504.40 L 406.10 506.90 L 407.30 507.40 L 410.10 508.00 L 412.60 508.10 L 416.70 507.10 L 420.40 504.90 L 428.80 498.00 L 432.20 495.80 L 437.50 493.60 L 440.80 492.80 L 443.50 493.00 L 445.80 493.60 L 447.60 494.60 L 450.70 497.30 L 453.50 502.00 L 457.40 511.50 L 458.90 514.40 L 460.70 516.90 L 462.20 518.30 L 465.90 520.20 L 468.00 520.60 L 470.70 520.50 L 477.60 519.50 L 480.70 519.30 L 486.00 520.10 L 490.20 521.80 L 492.80 523.50 L 496.30 527.10 L 498.10 529.80 L 559.00 531.70 L 571.20 531.90 L 575.80 531.60 L 578.80 531.00 L 581.40 529.90 L 583.00 528.60 L 584.30 527.10 L 586.80 522.50 L 587.80 521.30 L 589.10 520.20 L 590.90 519.60 L 593.60 519.30 L 595.50 519.50 L 597.10 520.10 L 598.50 521.00 L 600.20 522.80 L 605.10 530.00 L 608.00 532.80 L 611.80 534.90 L 614.20 535.50 L 617.30 535.80 L 619.50 535.50 L 621.20 534.90 L 622.50 533.90 L 624.40 531.00 L 625.70 526.10 L 626.80 516.00 L 627.40 512.80 L 628.40 510.00 L 629.30 508.50 L 630.50 507.20 L 632.00 506.20 L 634.20 505.50 L 636.20 505.20 L 638.00 505.40 L 640.60 506.30 L 643.10 507.80 L 650.40 513.50 L 654.50 516.00 L 658.20 516.70 L 659.30 516.50 L 660.50 515.80 L 661.60 514.60 L 662.70 512.70 L 663.80 510.10 L 665.80 502.10 L 666.90 495.10 L 667.90 486.70 L 669.40 468.50 L 671.90 431.50 L 673.80 416.60 L 675.60 409.10 L 680.00 398.80 L 682.40 392.40 L 684.20 386.40 L 685.30 381.40 L 686.40 372.00 L 686.50 362.80 L 686.10 359.30 L 683.30 349.20 L 676.20 331.30 L 671.10 320.50 L 667.00 312.80 L 665.00 310.20 Z" fill="#333333" fill-rule="nonzero" node-id="186" stroke="none" target-height="226.09998" target-width="289.4" target-x="397.1" target-y="309.7"></path><g node-id="427"><path d="M 838.50 520.00 L 836.30 516.30 L 835.20 515.10 L 833.20 513.70 L 830.80 512.90 L 828.10 512.50 L 816.40 512.20 L 798.30 502.50 L 726.30 462.80 L 668.30 430.30 L 618.20 401.50 L 600.50 390.70 L 589.80 383.60 L 587.30 381.30 L 585.10 378.70 L 583.30 375.90 L 581.20 371.40 L 579.70 366.90 L 578.10 358.50 L 568.20 360.30 L 558.10 361.70 L 547.80 362.50 L 537.10 362.80 L 526.40 362.50 L 516.10 361.70 L 505.90 360.30 L 496.10 358.40 L 494.80 365.00 L 493.80 368.50 L 492.30 371.90 L 490.50 375.20 L 488.20 378.10 L 486.40 379.80 L 482.00 382.40 L 469.30 386.90 L 420.90 402.40 L 357.10 422.10 L 254.80 453.10 L 259.10 453.80 L 261.20 454.60 L 264.40 456.30 L 267.30 458.60 L 270.00 461.40 L 272.40 464.90 L 274.00 468.30 L 275.10 471.70 L 275.70 475.00 L 275.80 478.40 L 275.40 481.50 L 274.60 484.40 L 273.20 487.00 L 271.40 489.20 L 269.20 490.90 L 345.90 476.30 L 404.40 464.40 L 432.10 458.40 L 456.00 452.70 L 474.40 447.80 L 477.20 452.70 L 478.70 456.70 L 480.50 463.10 L 482.20 471.30 L 483.60 480.00 L 484.80 490.00 L 486.40 511.20 L 486.90 533.30 L 486.60 544.30 L 485.20 564.80 L 483.90 573.70 L 479.90 579.80 L 475.30 587.80 L 472.90 593.30 L 470.70 599.30 L 462.50 627.90 L 421.20 759.90 L 405.70 812.20 L 397.40 842.80 L 391.70 867.80 L 390.10 877.10 L 389.40 883.00 L 389.30 887.20 L 389.60 890.10 L 390.70 893.20 L 392.40 896.20 L 394.60 899.10 L 397.50 901.90 L 400.60 904.30 L 408.10 908.80 L 418.80 913.10 L 425.50 915.10 L 432.70 916.70 L 440.00 918.00 L 455.00 919.30 L 462.70 919.30 L 470.10 919.00 L 477.30 918.20 L 484.50 916.90 L 491.00 915.20 L 497.10 913.10 L 501.50 911.20 L 505.40 908.90 L 508.80 906.50 L 511.90 903.90 L 514.50 900.80 L 516.60 897.50 L 518.20 894.00 L 519.20 890.10 L 517.00 822.10 L 516.40 766.10 L 517.00 730.10 L 518.70 697.30 L 521.20 674.00 L 523.80 659.20 L 525.60 652.40 L 527.50 647.30 L 529.50 643.40 L 531.30 640.70 L 533.20 639.00 L 535.10 638.00 L 537.10 637.70 L 539.10 638.00 L 541.00 639.00 L 542.90 640.70 L 544.80 643.40 L 546.70 647.30 L 548.60 652.40 L 550.40 659.20 L 553.10 674.00 L 555.50 697.30 L 557.20 730.10 L 557.60 748.00 L 557.80 784.80 L 557.20 822.10 L 555.00 890.10 L 556.00 894.00 L 557.60 897.50 L 559.70 900.80 L 562.40 903.90 L 565.40 906.50 L 568.80 908.90 L 572.70 911.20 L 577.10 913.10 L 583.20 915.20 L 589.70 916.90 L 596.90 918.20 L 604.10 919.00 L 611.50 919.30 L 619.20 919.30 L 626.80 918.80 L 634.20 918.00 L 641.50 916.70 L 648.70 915.10 L 655.40 913.10 L 661.50 910.80 L 670.10 906.60 L 676.70 901.90 L 679.60 899.10 L 681.80 896.20 L 683.50 893.20 L 684.70 890.10 L 684.90 887.20 L 684.80 883.00 L 684.20 877.10 L 682.60 867.80 L 680.00 855.70 L 672.90 827.80 L 663.60 795.20 L 653.00 759.90 L 611.80 627.90 L 605.60 606.60 L 603.00 596.30 L 599.20 586.90 L 597.00 583.00 L 590.30 573.70 L 589.10 564.80 L 587.60 544.30 L 587.40 522.20 L 588.50 500.30 L 590.60 480.00 L 592.00 471.30 L 593.80 463.10 L 595.50 456.70 L 597.00 452.70 L 599.80 447.80 L 612.80 456.30 L 627.40 465.20 L 642.60 473.90 L 674.80 491.30 L 722.60 515.10 L 774.10 538.90 L 800.20 550.20 L 803.00 550.90 L 807.40 551.40 L 811.90 551.30 L 815.00 550.90 L 820.70 549.20 L 825.90 546.40 L 828.20 544.50 L 833.30 538.50 L 837.00 532.50 L 838.90 526.90 L 839.20 524.20 L 839.00 521.90 L 838.50 520.00 Z" fill="#f8e5da" fill-rule="nonzero" group-id="4" node-id="190" stroke="none" target-height="560.9" target-width="584.4" target-x="254.8" target-y="358.4"></path><path d="M 496.10 358.40 L 505.90 360.30 L 516.10 361.70 L 526.50 362.50 L 537.10 362.80 L 547.80 362.50 L 558.20 361.70 L 568.20 360.30 L 578.10 358.50 L 579.70 366.90 L 581.20 371.40 L 583.30 375.90 L 585.10 378.70 L 587.30 381.30 L 589.80 383.60 L 600.50 390.70 L 618.20 401.50 L 668.30 430.30 L 726.30 462.90 L 811.50 509.60 L 816.40 512.20 L 828.10 512.50 L 830.80 512.90 L 833.20 513.70 L 835.20 515.10 L 836.30 516.30 L 838.50 520.00 L 839.10 521.90 L 839.20 524.20 L 838.90 526.90 L 837.00 532.50 L 833.30 538.50 L 828.20 544.50 L 825.60 546.70 L 822.70 548.40 L 819.40 549.70 L 816.10 550.70 L 809.10 551.40 L 805.30 551.20 L 801.70 550.60 L 798.30 549.50 L 751.10 528.40 L 722.70 515.10 L 674.80 491.30 L 642.60 473.90 L 627.50 465.20 L 612.80 456.30 L 599.90 447.80 L 597.10 452.70 L 595.60 456.70 L 593.80 463.10 L 592.10 471.30 L 590.70 480.00 L 588.50 500.30 L 587.50 522.20 L 587.60 544.30 L 589.10 564.80 L 590.30 573.70 L 597.00 583.00 L 599.20 586.90 L 603.10 596.30 L 605.60 606.60 L 611.80 627.90 L 653.00 759.90 L 663.60 795.20 L 672.90 827.80 L 676.80 842.80 L 682.60 867.80 L 684.20 877.10 L 684.80 883.00 L 685.00 887.20 L 684.70 890.10 L 683.80 892.70 L 680.70 897.70 L 678.60 900.20 L 675.30 903.00 L 671.50 905.70 L 667.00 908.30 L 662.30 910.50 L 657.20 912.50 L 645.80 915.80 L 633.50 918.10 L 624.10 919.00 L 614.50 919.40 L 600.30 918.60 L 593.60 917.70 L 587.00 916.30 L 580.90 914.50 L 575.40 912.40 L 571.30 910.40 L 567.70 908.20 L 564.60 905.80 L 561.80 903.30 L 559.40 900.30 L 557.40 897.20 L 556.00 893.80 L 555.00 890.10 L 557.20 822.10 L 557.80 784.80 L 557.70 748.00 L 557.20 730.10 L 555.50 697.30 L 553.10 674.00 L 550.40 659.20 L 548.60 652.40 L 546.70 647.30 L 544.80 643.40 L 542.90 640.70 L 541.00 639.00 L 539.10 638.00 L 537.10 637.70 L 535.10 638.00 L 533.20 639.00 L 531.40 640.70 L 529.50 643.40 L 527.60 647.30 L 525.70 652.40 L 523.90 659.20 L 521.20 674.00 L 518.70 697.30 L 517.00 730.10 L 516.60 748.00 L 516.50 784.80 L 517.10 822.10 L 519.30 890.10 L 518.30 893.80 L 516.80 897.20 L 514.90 900.30 L 512.50 903.30 L 509.70 905.80 L 506.50 908.20 L 503.00 910.40 L 498.90 912.40 L 493.40 914.50 L 487.30 916.30 L 480.70 917.70 L 473.90 918.60 L 459.80 919.40 L 450.20 919.00 L 440.70 918.10 L 434.50 917.10 L 422.70 914.30 L 417.10 912.50 L 407.20 908.30 L 402.70 905.70 L 398.90 903.00 L 395.70 900.20 L 391.80 895.30 L 389.60 890.10 L 389.30 887.20 L 389.40 883.00 L 390.10 877.10 L 391.70 867.80 L 394.30 855.70 L 401.40 827.80 L 410.60 795.20 L 421.30 759.90 L 462.50 627.90 L 470.70 599.30 L 472.90 593.30 L 475.30 587.80 L 479.90 579.80 L 484.00 573.70 L 485.20 564.80 L 486.70 544.30 L 486.90 533.30 L 486.40 511.20 L 484.80 490.00 L 483.60 480.00 L 482.20 471.30 L 480.50 463.10 L 478.70 456.70 L 477.20 452.70 L 474.40 447.80 L 456.00 452.70 L 432.10 458.40 L 404.50 464.40 L 345.90 476.30 L 269.20 490.90 L 271.40 489.20 L 273.20 487.00 L 274.60 484.40 L 275.50 481.50 L 275.90 478.40 L 275.70 475.00 L 275.20 471.70 L 274.00 468.30 L 272.40 464.90 L 270.00 461.40 L 267.40 458.60 L 264.40 456.30 L 261.30 454.60 L 259.10 453.80 L 254.80 453.10 L 357.10 422.10 L 420.90 402.40 L 469.30 386.90 L 482.00 382.40 L 486.40 379.80 L 488.20 378.10 L 490.50 375.20 L 492.40 371.90 L 493.80 368.50 L 494.80 365.00 L 496.10 358.40 M 496.10 356.40 L 494.90 356.80 L 494.40 357.40 L 492.10 367.30 L 490.80 370.60 L 489.10 373.70 L 487.00 376.50 L 485.30 378.10 L 481.30 380.50 L 468.40 385.10 L 419.50 400.70 L 355.10 420.60 L 254.20 451.20 L 253.60 451.50 L 252.80 452.60 L 253.00 454.00 L 254.00 454.90 L 257.70 455.50 L 260.70 456.50 L 263.50 458.10 L 266.20 460.20 L 268.50 462.80 L 270.60 465.90 L 272.10 469.00 L 273.10 472.00 L 273.70 475.00 L 273.80 478.10 L 273.50 480.80 L 272.80 483.40 L 271.60 485.70 L 270.10 487.70 L 267.60 489.70 L 267.30 490.30 L 267.20 490.90 L 267.60 492.20 L 269.20 492.90 L 346.10 478.30 L 403.80 466.60 L 431.10 460.70 L 455.00 455.10 L 473.60 450.10 L 474.90 452.50 L 477.80 460.70 L 479.60 468.20 L 481.30 478.00 L 482.60 488.40 L 483.70 500.50 L 484.50 513.90 L 484.90 526.90 L 484.80 539.80 L 484.30 551.80 L 483.30 563.30 L 482.00 573.10 L 476.40 581.60 L 474.00 586.00 L 469.70 595.90 L 460.40 627.70 L 418.80 761.20 L 403.40 813.20 L 395.20 843.40 L 389.60 868.20 L 388.10 877.40 L 387.40 883.40 L 387.30 887.60 L 387.60 890.40 L 388.80 893.90 L 390.60 897.10 L 393.00 900.30 L 396.20 903.40 L 399.50 906.00 L 403.60 908.60 L 408.30 911.10 L 413.90 913.50 L 420.50 915.80 L 427.90 917.70 L 435.50 919.30 L 443.50 920.40 L 451.60 921.10 L 459.80 921.40 L 468.00 921.10 L 476.20 920.30 L 486.90 918.40 L 496.90 915.40 L 505.70 911.20 L 509.60 908.50 L 513.00 905.60 L 515.90 902.40 L 517.70 899.70 L 519.20 896.90 L 520.40 893.80 L 521.30 890.00 L 519.00 817.80 L 518.50 779.40 L 518.70 742.00 L 520.20 705.50 L 521.40 689.60 L 522.80 676.80 L 524.50 666.00 L 526.30 657.80 L 528.10 651.50 L 529.80 647.00 L 531.60 643.80 L 533.30 641.60 L 534.60 640.50 L 535.90 639.90 L 537.10 639.70 L 539.70 640.50 L 541.00 641.60 L 542.70 643.80 L 544.40 647.00 L 546.20 651.50 L 548.00 657.70 L 549.80 666.00 L 551.50 676.80 L 552.90 689.60 L 554.10 705.40 L 555.60 742.00 L 555.80 779.40 L 555.30 817.80 L 553.00 890.00 L 553.90 893.80 L 556.50 899.70 L 558.40 902.40 L 561.30 905.60 L 564.70 908.50 L 568.60 911.20 L 572.80 913.40 L 582.30 917.00 L 592.70 919.50 L 598.10 920.30 L 606.30 921.10 L 614.50 921.40 L 622.60 921.10 L 630.70 920.40 L 638.70 919.30 L 646.40 917.70 L 653.70 915.80 L 660.40 913.50 L 666.00 911.10 L 670.70 908.60 L 674.70 906.00 L 678.10 903.40 L 681.30 900.30 L 683.70 897.10 L 685.50 893.90 L 686.60 890.60 L 686.90 887.60 L 686.90 883.40 L 686.20 877.40 L 684.70 868.20 L 682.10 856.20 L 675.20 828.60 L 666.10 796.30 L 655.50 761.20 L 613.80 627.80 L 607.60 606.10 L 604.80 595.20 L 603.30 591.10 L 600.70 585.40 L 598.30 581.30 L 592.20 573.10 L 590.90 563.30 L 590.00 551.80 L 589.50 539.90 L 589.40 527.00 L 589.70 513.90 L 590.50 500.50 L 591.60 488.60 L 592.90 478.40 L 594.60 468.80 L 597.70 456.50 L 600.40 450.50 L 613.30 458.90 L 627.80 467.70 L 642.80 476.30 L 674.70 493.50 L 722.00 516.90 L 750.10 530.20 L 797.80 551.50 L 801.40 552.50 L 805.20 553.20 L 809.10 553.40 L 813.20 553.20 L 817.00 552.50 L 820.60 551.50 L 824.00 550.00 L 827.00 548.10 L 829.60 545.90 L 832.50 542.80 L 837.10 536.50 L 840.10 530.00 L 840.90 527.10 L 841.20 524.00 L 841.00 521.50 L 840.30 519.20 L 838.90 516.40 L 837.30 514.30 L 835.70 512.90 L 833.80 511.80 L 829.30 510.60 L 816.90 510.20 L 769.10 484.20 L 686.60 438.40 L 637.80 410.60 L 600.90 388.60 L 591.00 382.00 L 588.70 379.90 L 586.80 377.60 L 585.10 375.00 L 583.10 370.80 L 581.70 366.50 L 580.10 358.20 L 579.80 357.40 L 578.70 356.50 L 557.70 359.70 L 547.50 360.60 L 537.10 360.80 L 526.80 360.60 L 516.60 359.70 L 506.50 358.40 L 496.10 356.40 Z" fill="#333333" fill-rule="nonzero" group-id="4" node-id="192" stroke="none" target-height="565" target-width="588.4" target-x="252.8" target-y="356.4"></path></g><g node-id="428"><g node-id="447"><path d="M 263.00 360.10 L 259.30 361.80 L 256.00 363.80 L 253.10 366.20 L 250.40 369.00 L 248.20 372.00 L 246.40 375.30 L 245.00 378.80 L 244.10 382.40 L 243.60 386.10 L 236.30 366.60 L 234.50 365.10 L 232.10 364.70 L 230.90 365.00 L 228.80 366.40 L 227.80 368.60 L 228.00 371.00 L 234.90 390.00 L 232.10 387.30 L 229.00 385.00 L 225.70 383.10 L 222.10 381.70 L 218.40 380.80 L 214.60 380.30 L 210.70 380.30 L 206.80 380.90 L 202.80 382.10 L 199.10 383.70 L 195.80 385.80 L 192.80 388.20 L 190.20 391.00 L 187.90 394.00 L 186.10 397.40 L 184.70 400.90 L 183.80 404.60 L 183.40 408.40 L 183.40 412.30 L 184.00 416.10 L 185.10 420.10 L 186.80 423.80 L 188.80 427.10 L 191.30 430.10 L 194.10 432.80 L 197.10 435.00 L 200.50 436.80 L 204.00 438.20 L 207.70 439.10 L 211.50 439.50 L 215.30 439.50 L 219.20 438.90 L 223.10 437.80 L 226.90 436.10 L 230.30 434.00 L 233.30 431.60 L 235.90 428.70 L 238.10 425.60 L 240.00 422.30 L 241.30 418.70 L 242.20 415.00 L 242.60 411.10 L 278.50 509.80 L 279.10 510.90 L 281.00 512.40 L 283.30 512.90 L 284.60 512.60 L 285.70 512.00 L 287.20 510.20 L 287.70 507.80 L 287.40 506.60 L 251.70 408.50 L 254.50 411.00 L 257.60 413.20 L 260.90 415.00 L 264.40 416.30 L 268.00 417.20 L 271.80 417.60 L 275.60 417.60 L 279.40 417.00 L 283.30 415.90 L 287.10 414.20 L 290.40 412.20 L 293.40 409.70 L 296.00 406.90 L 298.20 403.90 L 300.10 400.50 L 301.40 397.00 L 302.40 393.30 L 302.80 389.50 L 302.80 385.70 L 302.20 381.80 L 301.00 377.90 L 299.40 374.10 L 297.30 370.80 L 294.90 367.80 L 292.10 365.20 L 289.00 363.00 L 285.70 361.10 L 282.20 359.80 L 278.50 358.80 L 274.70 358.40 L 270.80 358.40 L 267.00 359.00 L 263.00 360.10 Z M 216.70 420.10 L 213.60 421.00 L 210.60 421.20 L 207.60 420.90 L 204.60 420.10 L 202.00 418.90 L 199.50 417.20 L 197.30 415.00 L 195.60 412.60 L 194.20 409.70 L 193.40 406.50 L 193.10 403.50 L 193.40 400.50 L 194.20 397.60 L 195.50 394.90 L 197.20 392.40 L 199.30 390.30 L 201.80 388.50 L 204.70 387.20 L 207.80 386.30 L 210.80 386.10 L 213.80 386.40 L 216.80 387.20 L 219.40 388.40 L 221.90 390.10 L 224.10 392.30 L 225.80 394.70 L 227.20 397.70 L 228.00 400.80 L 228.30 403.80 L 228.00 406.80 L 227.20 409.70 L 225.90 412.40 L 224.20 414.90 L 222.10 417.00 L 219.60 418.80 L 216.70 420.10 Z M 276.90 398.20 L 273.80 399.10 L 270.70 399.30 L 267.70 399.00 L 264.80 398.20 L 262.20 397.00 L 259.70 395.30 L 257.50 393.10 L 255.80 390.70 L 254.40 387.80 L 253.60 384.60 L 253.30 381.60 L 253.60 378.60 L 254.40 375.70 L 255.70 373.00 L 257.40 370.50 L 259.50 368.40 L 262.00 366.60 L 264.90 365.30 L 268.00 364.40 L 271.00 364.20 L 274.00 364.50 L 276.90 365.30 L 279.60 366.50 L 282.10 368.20 L 284.30 370.40 L 286.00 372.80 L 287.40 375.80 L 288.20 378.90 L 288.40 381.90 L 288.20 384.90 L 287.40 387.80 L 286.10 390.50 L 284.40 393.00 L 282.30 395.10 L 279.80 396.90 L 276.90 398.20 Z" fill="#3fd6bb" fill-rule="nonzero" group-id="5,24" node-id="199" stroke="none" target-height="154.50003" target-width="119.399994" target-x="183.4" target-y="358.4"></path><path d="M 283.00 513.40 L 280.80 512.90 L 279.60 512.20 L 278.10 510.00 L 242.90 413.50 L 242.30 417.20 L 241.20 420.70 L 239.70 424.00 L 237.80 427.20 L 235.50 430.00 L 232.90 432.60 L 230.00 434.80 L 226.80 436.70 L 223.30 438.30 L 219.30 439.40 L 215.40 440.00 L 211.50 440.00 L 207.60 439.60 L 203.90 438.70 L 200.30 437.20 L 196.90 435.40 L 193.70 433.10 L 190.90 430.40 L 188.40 427.40 L 186.30 424.00 L 184.70 420.20 L 183.50 416.40 L 182.90 412.50 L 182.80 408.60 L 183.30 404.70 L 184.20 400.90 L 185.70 397.20 L 187.60 393.70 L 189.90 390.50 L 192.60 387.70 L 195.70 385.20 L 199.00 383.20 L 202.70 381.60 L 206.40 380.50 L 210.00 379.90 L 213.70 379.80 L 217.30 380.10 L 220.90 380.80 L 224.40 382.00 L 227.70 383.60 L 230.80 385.60 L 233.70 388.00 L 227.30 369.90 L 227.70 367.20 L 228.50 366.00 L 230.70 364.50 L 232.00 364.20 L 234.70 364.70 L 236.70 366.40 L 243.30 383.90 L 244.00 380.30 L 245.20 376.90 L 246.70 373.60 L 248.60 370.50 L 250.80 367.80 L 253.40 365.20 L 256.30 363.00 L 259.40 361.20 L 262.90 359.70 L 263.00 360.20 L 262.90 359.70 L 266.70 358.60 L 270.60 358.00 L 274.50 357.90 L 278.40 358.30 L 282.20 359.20 L 285.90 360.70 L 289.40 362.60 L 292.60 364.90 L 295.40 367.60 L 297.90 370.70 L 299.90 374.00 L 301.50 377.70 L 302.70 381.70 L 303.20 385.60 L 303.30 389.50 L 302.80 393.40 L 301.90 397.20 L 300.50 400.80 L 298.60 404.20 L 296.40 407.30 L 293.70 410.10 L 290.70 412.60 L 287.30 414.70 L 283.50 416.40 L 279.90 417.40 L 276.30 418.00 L 272.70 418.20 L 269.10 417.90 L 265.60 417.20 L 262.20 416.10 L 258.90 414.60 L 255.80 412.70 L 252.90 410.40 L 287.90 506.40 L 288.10 509.10 L 287.00 511.60 L 284.80 513.10 L 283.00 513.40 Z M 242.20 408.60 L 279.00 509.60 L 279.80 511.00 L 281.20 512.00 L 282.80 512.40 L 284.40 512.20 L 285.80 511.30 L 286.80 510.00 L 287.20 508.40 L 287.00 506.70 L 250.40 406.40 L 254.90 410.70 L 258.00 412.90 L 261.30 414.60 L 264.80 415.90 L 268.30 416.80 L 272.00 417.10 L 275.80 417.10 L 279.40 416.50 L 283.20 415.40 L 286.80 413.80 L 290.10 411.80 L 293.00 409.40 L 295.60 406.60 L 297.80 403.60 L 299.60 400.30 L 300.90 396.80 L 301.90 393.20 L 302.30 389.50 L 302.20 385.70 L 301.70 381.90 L 300.60 378.00 L 299.00 374.50 L 297.00 371.20 L 294.70 368.30 L 292.00 365.70 L 288.90 363.50 L 285.50 361.60 L 281.90 360.20 L 278.20 359.30 L 274.40 358.90 L 270.70 359.00 L 266.90 359.50 L 263.20 360.60 L 259.70 362.20 L 256.50 364.10 L 253.60 366.40 L 251.00 369.10 L 248.80 372.10 L 246.90 375.30 L 245.50 378.70 L 244.60 382.40 L 243.90 388.60 L 236.40 368.00 L 235.60 366.60 L 234.20 365.60 L 232.60 365.20 L 231.00 365.40 L 229.60 366.30 L 228.60 367.60 L 228.20 369.20 L 228.50 370.80 L 236.20 392.10 L 231.70 387.50 L 228.60 385.30 L 225.30 383.50 L 221.80 382.10 L 218.10 381.20 L 214.40 380.80 L 210.60 380.80 L 206.80 381.40 L 203.00 382.50 L 199.40 384.10 L 196.20 386.00 L 193.30 388.40 L 190.70 391.10 L 188.40 394.20 L 186.60 397.60 L 185.10 401.20 L 184.20 404.90 L 183.80 408.70 L 183.90 412.40 L 184.50 416.20 L 185.60 419.90 L 187.10 423.40 L 189.10 426.70 L 191.50 429.60 L 194.20 432.20 L 197.30 434.50 L 200.70 436.30 L 204.30 437.70 L 208.00 438.60 L 211.70 439.10 L 215.50 439.00 L 219.20 438.40 L 223.00 437.30 L 226.60 435.70 L 229.80 433.70 L 232.80 431.30 L 235.40 428.60 L 237.60 425.60 L 239.40 422.30 L 240.80 418.70 L 241.70 415.00 L 242.20 408.60 Z M 210.70 421.70 L 205.60 421.00 L 203.10 420.00 L 199.10 417.50 L 195.90 414.00 L 194.70 412.00 L 193.70 409.80 L 192.90 406.60 L 192.60 403.50 L 192.90 400.40 L 193.80 397.40 L 195.10 394.70 L 196.80 392.10 L 199.00 389.90 L 201.50 388.10 L 204.50 386.70 L 207.70 385.90 L 210.80 385.60 L 213.90 385.90 L 216.90 386.70 L 219.70 388.00 L 222.20 389.80 L 224.40 392.00 L 226.20 394.50 L 227.70 397.50 L 228.70 402.10 L 228.50 406.80 L 227.90 409.00 L 227.10 411.30 L 224.50 415.30 L 221.10 418.40 L 219.10 419.60 L 216.90 420.60 L 213.80 421.40 L 210.70 421.70 Z M 210.70 386.60 L 207.80 386.80 L 204.90 387.60 L 202.80 388.50 L 199.20 391.10 L 196.30 394.50 L 195.20 396.40 L 194.40 398.60 L 193.70 402.90 L 194.00 407.30 L 194.70 409.50 L 195.60 411.60 L 198.10 415.20 L 201.50 418.00 L 203.50 419.10 L 205.60 419.90 L 210.00 420.70 L 214.40 420.30 L 216.50 419.70 L 218.60 418.80 L 222.20 416.20 L 225.10 412.90 L 226.20 410.90 L 227.00 408.70 L 227.80 404.40 L 227.40 400.00 L 226.70 397.80 L 225.70 395.60 L 223.00 391.80 L 221.30 390.30 L 217.40 388.00 L 213.00 386.80 L 210.70 386.60 Z M 270.90 399.80 L 265.80 399.00 L 263.30 398.10 L 259.30 395.60 L 256.10 392.10 L 254.90 390.10 L 253.90 387.90 L 253.10 384.70 L 252.80 381.60 L 253.10 378.50 L 254.00 375.50 L 255.20 372.80 L 257.00 370.20 L 259.20 368.00 L 261.70 366.20 L 264.70 364.80 L 267.90 364.00 L 271.00 363.70 L 274.10 364.00 L 277.10 364.80 L 279.90 366.10 L 282.40 367.90 L 284.60 370.00 L 286.40 372.60 L 287.90 375.60 L 288.70 378.80 L 288.90 381.90 L 288.60 385.00 L 287.80 388.00 L 286.50 390.70 L 284.80 393.30 L 282.60 395.50 L 280.00 397.30 L 277.10 398.70 L 274.00 399.50 L 270.90 399.80 Z M 270.90 364.70 L 268.00 364.90 L 265.10 365.70 L 262.20 367.10 L 259.80 368.80 L 257.80 370.90 L 256.10 373.30 L 254.90 375.90 L 254.10 378.70 L 253.80 381.60 L 254.10 384.60 L 254.90 387.60 L 255.80 389.70 L 258.30 393.30 L 261.70 396.10 L 263.70 397.20 L 265.80 398.00 L 270.20 398.80 L 274.50 398.40 L 276.70 397.80 L 279.50 396.40 L 282.00 394.70 L 284.00 392.60 L 285.70 390.20 L 286.90 387.60 L 287.70 384.80 L 288.00 381.90 L 287.70 378.90 L 286.90 375.90 L 285.90 373.70 L 283.20 369.90 L 281.50 368.40 L 277.60 366.10 L 273.20 364.90 L 270.90 364.70 Z" fill="#333333" fill-rule="nonzero" group-id="5,24" node-id="201" stroke="none" target-height="155.50003" target-width="120.499985" target-x="182.8" target-y="357.9"></path></g><g node-id="448"><g node-id="461"><path d="M 218.70 385.60 L 229.20 363.00 L 251.80 373.60 L 241.30 396.10 Z" fill="#34d4e0" fill-rule="nonzero" group-id="5,25,38" node-id="208" stroke="none" target-height="33.100006" target-width="33.100006" target-x="218.7" target-y="363"></path></g><path d="M 241.50 396.80 L 218.10 385.80 L 229.00 362.40 L 252.50 373.30 L 241.50 396.80 Z M 219.40 385.40 L 241.00 395.50 L 251.10 373.80 L 229.50 363.70 L 219.40 385.40 Z" fill="#40cf99" fill-rule="nonzero" group-id="5,25" node-id="211" stroke="#3fd6bb" stroke-linecap="butt" stroke-width="2" target-height="34.399994" target-width="34.399994" target-x="218.1" target-y="362.4"></path></g><g node-id="449"><path d="M 230.60 369.70 L 230.30 372.70 L 229.60 375.50 L 228.40 378.00 L 226.70 380.40 L 224.80 382.30 L 222.40 384.00 L 219.90 385.20 L 217.10 385.90 L 214.10 386.20 L 211.10 385.90 L 208.30 385.20 L 205.80 384.00 L 203.50 382.30 L 201.50 380.40 L 199.90 378.00 L 198.60 375.50 L 197.90 372.70 L 197.60 369.70 L 197.90 366.70 L 198.60 363.90 L 199.90 361.40 L 201.50 359.10 L 203.50 357.10 L 205.80 355.50 L 208.30 354.30 L 211.10 353.50 L 214.10 353.20 L 217.10 353.50 L 219.90 354.30 L 222.40 355.50 L 224.80 357.10 L 226.70 359.10 L 228.40 361.40 L 229.60 363.90 L 230.30 366.70 L 230.60 369.70 Z" fill="#34d4e0" fill-rule="nonzero" group-id="5,26" node-id="216" stroke="none" target-height="33" target-width="33" target-x="197.6" target-y="353.2"></path><path d="M 214.10 386.70 L 209.30 386.00 L 206.90 385.10 L 203.20 382.70 L 200.20 379.50 L 199.10 377.60 L 198.10 375.50 L 197.20 371.20 L 197.40 366.80 L 197.90 364.70 L 198.70 362.50 L 201.10 358.80 L 204.30 355.80 L 206.20 354.70 L 208.30 353.80 L 212.70 352.80 L 217.00 353.00 L 219.20 353.50 L 221.30 354.30 L 225.10 356.70 L 228.00 360.00 L 229.20 361.80 L 230.10 363.90 L 231.10 368.30 L 230.90 372.70 L 230.30 374.80 L 229.50 376.90 L 227.10 380.70 L 223.90 383.60 L 222.00 384.80 L 217.00 386.50 L 214.10 386.70 Z M 214.10 353.70 L 211.40 353.90 L 208.60 354.70 L 205.80 356.00 L 203.30 357.90 L 201.20 360.20 L 199.60 363.00 L 198.60 365.90 L 198.10 369.00 L 198.30 372.10 L 199.10 375.20 L 200.30 377.80 L 201.90 380.10 L 203.90 382.00 L 206.20 383.60 L 208.60 384.70 L 211.30 385.40 L 214.00 385.70 L 216.80 385.50 L 219.60 384.70 L 222.20 383.50 L 224.50 381.90 L 226.40 379.90 L 228.00 377.70 L 229.10 375.20 L 229.90 372.60 L 230.10 369.80 L 229.90 367.10 L 229.20 364.20 L 227.80 361.40 L 225.90 358.90 L 223.60 356.80 L 220.90 355.20 L 218.70 354.40 L 214.10 353.70 Z" fill="#333333" fill-rule="nonzero" group-id="5,26" node-id="218" stroke="none" target-height="33.900024" target-width="33.90001" target-x="197.2" target-y="352.8"></path></g><g node-id="450"><path d="M 263.20 357.90 L 262.90 361.10 L 262.00 364.20 L 260.40 367.00 L 258.40 369.50 L 255.90 371.60 L 253.00 373.10 L 250.00 374.00 L 246.70 374.40 L 243.70 374.10 L 240.90 373.30 L 238.40 372.10 L 236.10 370.50 L 234.10 368.50 L 232.50 366.20 L 231.20 363.60 L 230.50 360.90 L 230.20 357.90 L 230.50 354.80 L 231.20 352.10 L 232.50 349.50 L 234.10 347.20 L 236.10 345.30 L 238.40 343.60 L 240.90 342.40 L 243.70 341.60 L 246.70 341.40 L 250.00 341.70 L 253.00 342.60 L 255.90 344.10 L 258.40 346.20 L 260.40 348.70 L 262.00 351.50 L 262.90 354.60 L 263.20 357.90 Z" fill="#34d4e0" fill-rule="nonzero" group-id="5,27" node-id="223" stroke="none" target-height="33" target-width="33.000015" target-x="230.2" target-y="341.4"></path><path d="M 246.70 374.90 L 242.50 374.30 L 240.40 373.60 L 238.40 372.70 L 234.80 370.00 L 232.10 366.50 L 231.10 364.50 L 230.30 362.40 L 229.70 358.10 L 230.20 353.70 L 230.90 351.50 L 233.10 347.70 L 236.20 344.50 L 238.00 343.20 L 240.00 342.20 L 244.30 341.00 L 248.70 341.00 L 250.90 341.40 L 255.10 343.00 L 258.60 345.70 L 261.30 349.20 L 262.70 352.00 L 263.40 354.80 L 263.70 357.70 L 263.50 360.70 L 262.80 363.40 L 261.60 366.10 L 260.00 368.50 L 257.90 370.60 L 255.40 372.50 L 252.60 373.80 L 249.70 374.60 L 246.70 374.90 Z M 246.70 341.90 L 243.90 342.10 L 241.20 342.80 L 238.50 344.10 L 236.00 346.00 L 233.90 348.30 L 232.30 350.90 L 231.20 353.90 L 230.70 357.00 L 230.90 360.10 L 231.60 363.10 L 233.00 366.00 L 234.80 368.60 L 237.10 370.70 L 239.80 372.30 L 242.80 373.40 L 245.90 373.80 L 249.00 373.70 L 252.00 373.00 L 254.90 371.60 L 257.20 369.90 L 259.20 367.90 L 260.70 365.60 L 261.80 363.10 L 262.50 360.50 L 262.70 357.70 L 262.50 355.00 L 261.70 352.30 L 260.50 349.70 L 258.80 347.30 L 256.80 345.40 L 254.50 343.90 L 252.00 342.80 L 249.40 342.10 L 246.70 341.90 Z" fill="#333333" fill-rule="nonzero" group-id="5,27" node-id="225" stroke="none" target-height="33.899994" target-width="34.000015" target-x="229.7" target-y="341"></path></g></g><g node-id="429"><path d="M 272.40 464.90 L 270.00 461.40 L 267.30 458.60 L 264.40 456.30 L 261.20 454.60 L 259.10 453.80 L 254.80 453.10 L 252.40 453.20 L 250.10 453.80 L 247.90 454.80 L 245.60 456.50 L 243.80 458.70 L 242.30 461.30 L 241.40 464.20 L 241.00 467.30 L 241.10 470.70 L 241.70 474.10 L 242.80 477.50 L 244.50 481.00 L 246.70 484.20 L 249.10 486.80 L 251.70 489.00 L 254.60 490.80 L 257.50 492.00 L 260.50 492.70 L 263.40 492.80 L 266.20 492.20 L 268.90 491.10 L 271.40 489.20 L 273.20 487.00 L 274.60 484.40 L 275.40 481.50 L 275.80 478.40 L 275.70 475.00 L 275.10 471.70 L 274.00 468.30 L 272.40 464.90 Z" fill="#f8e5da" fill-rule="nonzero" group-id="6" node-id="231" stroke="none" target-height="39.69998" target-width="34.799988" target-x="241" target-y="453.1"></path><path d="M 254.50 453.10 L 256.90 453.30 L 261.20 454.60 L 264.40 456.30 L 267.30 458.60 L 270.00 461.40 L 272.40 464.90 L 274.00 468.30 L 275.10 471.70 L 275.70 475.00 L 275.80 478.40 L 275.40 481.50 L 274.60 484.40 L 273.20 487.00 L 271.40 489.20 L 268.90 491.10 L 266.80 492.00 L 262.40 492.80 L 258.00 492.20 L 255.80 491.40 L 252.70 489.70 L 249.60 487.30 L 246.90 484.40 L 244.50 481.00 L 242.80 477.50 L 241.70 474.10 L 241.10 470.70 L 241.00 467.30 L 241.40 464.20 L 242.30 461.30 L 243.80 458.70 L 245.60 456.50 L 247.90 454.70 L 250.00 453.80 L 254.50 453.10 M 254.50 451.10 L 251.70 451.30 L 249.30 451.90 L 246.90 453.00 L 244.90 454.40 L 241.80 458.10 L 240.60 460.30 L 239.60 463.50 L 239.10 466.90 L 239.10 470.70 L 239.70 474.40 L 240.90 478.10 L 242.80 482.00 L 244.40 484.50 L 248.20 488.80 L 250.40 490.50 L 255.00 493.20 L 257.50 494.10 L 262.40 494.80 L 265.10 494.60 L 267.60 493.90 L 269.90 492.80 L 272.20 491.20 L 275.30 487.50 L 276.40 485.30 L 277.40 482.20 L 277.90 478.80 L 277.80 475.10 L 277.10 471.40 L 275.90 467.70 L 274.10 463.90 L 272.50 461.40 L 268.80 457.20 L 266.60 455.40 L 262.10 452.80 L 257.20 451.30 L 254.50 451.10 Z" fill="#333333" fill-rule="nonzero" group-id="6" node-id="233" stroke="none" target-height="43.69998" target-width="38.799988" target-x="239.1" target-y="451.1"></path></g><path d="M 597.50 583.70 L 477.50 583.70 L 472.80 593.40 L 470.70 599.30 L 462.50 627.90 L 421.30 759.90 L 405.70 812.20 L 397.40 842.80 L 391.70 867.80 L 390.10 877.10 L 389.40 883.00 L 389.30 887.20 L 389.60 890.10 L 390.70 893.20 L 392.40 896.20 L 394.60 899.10 L 397.50 901.90 L 404.10 906.60 L 412.70 910.80 L 418.80 913.10 L 425.50 915.10 L 432.70 916.70 L 440.00 918.00 L 447.40 918.80 L 455.10 919.30 L 462.70 919.30 L 470.10 919.00 L 477.30 918.20 L 484.50 916.90 L 491.10 915.20 L 497.10 913.10 L 501.50 911.20 L 505.40 908.90 L 508.90 906.50 L 511.90 903.90 L 514.50 900.80 L 516.60 897.50 L 518.20 894.00 L 519.20 890.10 L 517.10 822.10 L 516.50 784.80 L 516.60 748.00 L 517.00 730.10 L 518.70 697.30 L 521.20 674.00 L 523.90 659.20 L 525.70 652.40 L 527.50 647.30 L 529.50 643.40 L 531.40 640.70 L 533.20 639.00 L 535.10 638.00 L 537.10 637.70 L 539.10 638.00 L 541.00 639.00 L 542.90 640.70 L 544.80 643.40 L 546.70 647.30 L 548.60 652.40 L 550.40 659.20 L 553.10 674.00 L 555.50 697.30 L 557.20 730.10 L 557.60 748.00 L 557.80 784.80 L 557.20 822.10 L 555.00 890.10 L 556.00 894.00 L 557.60 897.50 L 559.70 900.80 L 562.40 903.90 L 565.40 906.50 L 568.80 908.90 L 572.70 911.20 L 577.10 913.10 L 583.20 915.20 L 589.70 916.90 L 596.90 918.20 L 604.10 919.00 L 611.50 919.30 L 619.20 919.30 L 626.80 918.80 L 634.30 918.00 L 641.60 916.70 L 648.80 915.10 L 655.40 913.10 L 661.60 910.80 L 670.10 906.60 L 676.70 901.90 L 679.60 899.10 L 681.90 896.20 L 683.50 893.20 L 684.70 890.10 L 684.80 883.00 L 684.20 877.10 L 682.60 867.80 L 680.00 855.70 L 672.90 827.80 L 663.60 795.20 L 653.00 759.90 L 611.80 627.90 L 605.60 606.60 L 603.20 596.70 L 599.60 587.70 L 597.50 583.70 Z" fill="#64e6b4" fill-rule="nonzero" node-id="236" stroke="#333333" stroke-linecap="round" stroke-width="2" target-height="335.59998" target-width="295.5" target-x="389.3" target-y="583.7"></path><g node-id="430"><g node-id="451"><g clip-path="url(#SVGID_00000165925174904742826670000002035943914917881779_)" group-id="7,28" node-id="240"><path d="M 483.00 723.20 L 517.70 751.50 L 477.60 731.60 L 476.40 730.80 L 475.00 728.70 L 474.80 726.20 L 475.30 724.90 L 476.10 723.70 L 478.20 722.30 L 480.70 722.20 L 483.00 723.20 Z" fill="#5bfcce" fill-rule="nonzero" group-id="7,28" node-id="242" stroke="none" target-height="29.299988" target-width="42.900024" target-x="474.8" target-y="722.2"></path></g></g><g node-id="452"><g clip-path="url(#SVGID_00000165925174904742826670000002035943914917881779_)" group-id="7,29" node-id="245"><path d="M 404.50 805.30 L 439.30 833.70 L 399.10 813.70 L 398.00 812.90 L 396.60 810.80 L 396.40 808.30 L 396.80 807.00 L 397.60 805.80 L 399.70 804.40 L 402.30 804.30 L 404.50 805.30 Z" fill="#5bfcce" fill-rule="nonzero" group-id="7,29" node-id="247" stroke="none" target-height="29.400024" target-width="42.899994" target-x="396.4" target-y="804.3"></path></g></g><g node-id="453"><g clip-path="url(#SVGID_00000165925174904742826670000002035943914917881779_)" group-id="7,30" node-id="250"><path d="M 490.40 873.70 L 514.20 883.90 L 486.90 883.30 L 485.70 882.80 L 483.90 880.90 L 483.30 878.30 L 483.50 876.90 L 484.00 875.80 L 485.80 874.00 L 488.40 873.30 L 490.40 873.70 Z" fill="#5bfcce" fill-rule="nonzero" group-id="7,30" node-id="252" stroke="none" target-height="10.600037" target-width="30.900024" target-x="483.3" target-y="873.3"></path></g></g><g node-id="454"><g clip-path="url(#SVGID_00000165925174904742826670000002035943914917881779_)" group-id="7,31" node-id="255"><path d="M 490.20 624.60 L 508.00 647.40 L 482.50 631.10 L 481.70 630.10 L 481.20 627.60 L 481.90 625.00 L 482.80 624.00 L 483.90 623.20 L 486.40 622.70 L 488.90 623.40 L 490.20 624.60 Z" fill="#5bfcce" fill-rule="nonzero" group-id="7,31" node-id="257" stroke="none" target-height="24.700012" target-width="26.799988" target-x="481.2" target-y="622.7"></path></g></g><g node-id="455"><g clip-path="url(#SVGID_00000165925174904742826670000002035943914917881779_)" group-id="7,32" node-id="260"><path d="M 614.20 682.10 L 649.00 710.50 L 608.80 690.50 L 607.70 689.80 L 606.30 687.60 L 606.10 685.10 L 606.50 683.80 L 607.30 682.70 L 609.40 681.30 L 612.00 681.10 L 614.20 682.10 Z" fill="#5bfcce" fill-rule="nonzero" group-id="7,32" node-id="262" stroke="none" target-height="29.400024" target-width="42.900024" target-x="606.1" target-y="681.1"></path></g></g><g node-id="456"><g clip-path="url(#SVGID_00000165925174904742826670000002035943914917881779_)" group-id="7,33" node-id="265"><path d="M 589.10 772.30 L 616.30 803.70 L 582.30 779.70 L 581.30 778.80 L 580.30 776.50 L 580.50 773.90 L 581.10 772.70 L 582.10 771.70 L 584.40 770.70 L 586.90 770.90 L 589.10 772.30 Z" fill="#5bfcce" fill-rule="nonzero" group-id="7,33" node-id="267" stroke="none" target-height="33" target-width="36" target-x="580.3" target-y="770.7"></path></g></g><g clip-path="url(#SVGID_00000165925174904742826670000002035943914917881779_)" group-id="7,34" node-id="270"><path d="M 665.30 867.70 L 692.50 899.10 L 658.60 875.10 L 657.50 874.20 L 656.50 871.90 L 656.70 869.30 L 657.30 868.10 L 658.30 867.10 L 660.60 866.00 L 663.10 866.30 L 665.30 867.70 Z" fill="#5bfcce" fill-rule="nonzero" group-id="7,34" node-id="272" stroke="none" target-height="33.099976" target-width="36" target-x="656.5" target-y="866"></path></g></g><g node-id="431"><path d="M 603.00 594.60 L 592.50 597.20 L 574.70 600.30 L 555.10 602.30 L 537.10 603.00 L 527.40 602.70 L 508.80 601.10 L 492.30 598.80 L 472.20 594.60 L 480.50 577.60 L 493.00 579.80 L 513.50 582.50 L 529.30 583.60 L 537.10 583.80 L 549.20 583.50 L 570.00 581.90 L 578.10 580.90 L 594.60 577.90 L 603.00 594.60 Z" fill="#a0f9d1" fill-rule="nonzero" group-id="8" node-id="278" stroke="none" target-height="25.400024" target-width="130.79999" target-x="472.2" target-y="577.6"></path><path d="M 537.10 604.00 L 527.50 603.70 L 508.90 602.20 L 485.80 598.60 L 471.90 595.60 L 471.30 595.00 L 471.30 594.20 L 479.60 577.20 L 480.00 576.70 L 480.70 576.70 L 493.40 578.90 L 513.70 581.50 L 529.40 582.70 L 537.10 582.80 L 549.00 582.60 L 569.60 580.90 L 577.70 579.90 L 595.00 577.00 L 595.50 577.50 L 603.90 594.20 L 603.90 595.00 L 603.30 595.60 L 592.50 598.20 L 574.60 601.30 L 555.00 603.40 L 537.10 604.00 Z M 473.60 593.90 L 488.70 597.10 L 506.10 599.80 L 526.50 601.70 L 537.10 602.00 L 549.20 601.70 L 560.10 600.90 L 570.60 599.80 L 587.60 597.10 L 601.60 594.00 L 594.00 579.10 L 574.80 582.30 L 567.00 583.20 L 547.90 584.60 L 537.10 584.80 L 522.80 584.30 L 508.70 583.00 L 496.20 581.30 L 481.00 578.80 L 473.60 593.90 Z" fill="#333333" fill-rule="nonzero" group-id="8" node-id="280" stroke="none" target-height="27.299988" target-width="132.60004" target-x="471.3" target-y="576.7"></path></g><g node-id="432"><path d="M 556.50 602.30 L 545.90 603.10 L 537.10 603.30 L 528.30 603.10 L 517.70 602.10 L 517.70 583.10 L 537.10 583.80 L 556.20 583.20 L 556.50 602.30 Z" fill="#64e6b4" fill-rule="nonzero" group-id="9" node-id="285" stroke="none" target-height="20.200012" target-width="38.799988" target-x="517.7" target-y="583.1"></path><path d="M 537.10 604.30 L 522.80 603.70 L 517.60 603.10 L 517.00 602.80 L 516.70 602.10 L 516.70 583.10 L 517.00 582.40 L 517.80 582.10 L 537.10 582.80 L 556.10 582.20 L 556.90 582.50 L 557.20 583.20 L 557.50 602.30 L 557.30 602.90 L 556.70 603.30 L 551.50 603.80 L 537.10 604.30 Z M 518.70 601.30 L 525.10 601.90 L 537.10 602.30 L 549.10 601.90 L 555.50 601.40 L 555.20 584.30 L 537.10 584.80 L 518.70 584.20 L 518.70 601.30 Z" fill="#333333" fill-rule="nonzero" group-id="9" node-id="287" stroke="none" target-height="22.200012" target-width="40.799988" target-x="516.7" target-y="582.1"></path></g><g node-id="433"><g node-id="458"><g node-id="462"><g node-id="466"><path d="M 380.00 237.00 L 384.70 240.00 L 389.00 243.20 L 392.90 246.70 L 396.50 250.60 L 399.60 254.50 L 402.00 258.40 L 404.00 262.60 L 405.20 266.50 L 405.80 270.20 L 405.80 273.00 L 404.70 278.00 L 403.60 280.30 L 402.20 282.40 L 398.40 285.80 L 395.90 287.20 L 392.40 288.60 L 388.40 289.50 L 383.80 289.90 L 379.20 289.70 L 374.30 289.10 L 369.20 287.90 L 364.20 286.20 L 359.20 284.10 L 354.30 281.50 L 349.50 278.50 L 345.20 275.20 L 341.30 271.70 L 337.70 267.90 L 334.60 264.00 L 332.20 260.10 L 330.20 255.90 L 329.00 252.00 L 328.40 248.30 L 328.40 245.50 L 329.50 240.40 L 330.60 238.10 L 333.80 234.20 L 338.30 231.20 L 341.80 229.90 L 345.80 229.00 L 350.40 228.60 L 355.00 228.70 L 359.90 229.40 L 365.00 230.60 L 370.00 232.30 L 375.00 234.40 L 380.00 237.00 Z" fill="#64e6b4" fill-rule="nonzero" group-id="10,35,39,43" node-id="298" stroke="none" target-height="61.299988" target-width="77.399994" target-x="328.4" target-y="228.6"></path></g><path d="M 382.80 290.90 L 378.40 290.60 L 373.70 289.90 L 368.60 288.70 L 363.80 287.10 L 358.80 285.00 L 353.80 282.40 L 348.90 279.30 L 344.50 276.00 L 340.50 272.40 L 336.90 268.60 L 333.80 264.60 L 331.30 260.60 L 329.30 256.20 L 328.00 252.10 L 327.40 248.30 L 327.40 245.30 L 327.80 242.60 L 328.60 240.10 L 329.70 237.70 L 331.30 235.40 L 333.10 233.50 L 335.30 231.80 L 337.90 230.40 L 341.50 229.00 L 345.50 228.10 L 350.10 227.60 L 354.70 227.80 L 359.60 228.40 L 364.90 229.50 L 370.00 231.20 L 375.20 233.40 L 380.50 236.10 L 385.30 239.20 L 389.70 242.50 L 393.70 246.00 L 397.30 249.90 L 400.40 253.90 L 402.90 257.90 L 404.90 262.30 L 406.20 266.40 L 406.80 270.20 L 406.80 273.10 L 406.40 275.80 L 405.60 278.40 L 404.50 280.80 L 402.90 283.20 L 400.90 285.20 L 398.60 286.90 L 395.90 288.30 L 392.00 289.70 L 387.70 290.60 L 382.80 290.90 Z M 351.30 229.60 L 346.80 229.80 L 342.80 230.60 L 339.30 231.80 L 336.80 233.10 L 334.70 234.70 L 332.90 236.50 L 331.50 238.70 L 329.70 243.10 L 329.40 248.30 L 330.00 251.80 L 331.20 255.50 L 333.10 259.60 L 335.50 263.50 L 338.40 267.30 L 342.00 271.00 L 345.80 274.50 L 350.10 277.60 L 354.80 280.60 L 359.80 283.30 L 364.70 285.40 L 369.60 286.90 L 374.60 288.10 L 379.20 288.70 L 383.60 288.90 L 387.90 288.60 L 391.80 287.80 L 395.20 286.50 L 397.50 285.20 L 401.30 281.90 L 402.80 279.80 L 403.80 277.60 L 404.80 272.90 L 404.80 270.20 L 404.20 266.70 L 403.00 262.90 L 401.10 258.90 L 398.70 255.00 L 395.80 251.20 L 392.30 247.40 L 388.40 244.00 L 384.20 240.80 L 379.50 237.80 L 374.50 235.30 L 369.70 233.20 L 365.00 231.60 L 360.10 230.50 L 355.60 229.80 L 351.30 229.60 Z" fill="#333333" fill-rule="nonzero" group-id="10,35,39" node-id="301" stroke="none" target-height="63.299988" target-width="79.399994" target-x="327.4" target-y="227.6"></path></g><g node-id="463"><g node-id="467"><path d="M 388.50 249.90 L 391.70 251.90 L 397.20 256.50 L 399.50 259.20 L 403.10 264.60 L 404.30 267.60 L 405.10 270.40 L 405.30 273.00 L 405.20 275.60 L 404.60 278.10 L 403.60 280.30 L 402.20 282.30 L 400.40 284.00 L 398.10 285.50 L 395.70 286.50 L 392.90 287.30 L 389.80 287.70 L 383.30 287.40 L 379.80 286.60 L 373.00 284.20 L 369.70 282.50 L 363.60 278.20 L 358.60 273.20 L 356.70 270.50 L 355.10 267.70 L 353.90 264.70 L 353.10 262.00 L 352.80 259.30 L 353.00 256.70 L 353.50 254.30 L 354.60 252.00 L 356.00 250.00 L 357.80 248.30 L 360.00 246.80 L 362.50 245.80 L 365.20 245.00 L 368.40 244.60 L 374.90 245.00 L 378.40 245.70 L 385.20 248.10 L 388.50 249.90 Z" fill="#40cf99" fill-rule="nonzero" group-id="10,35,40,44" node-id="308" stroke="none" target-height="43.100006" target-width="52.5" target-x="352.8" target-y="244.6"></path></g><path d="M 388.00 288.80 L 381.80 288.10 L 378.60 287.40 L 373.90 285.70 L 369.20 283.30 L 365.90 281.20 L 360.30 276.50 L 357.90 273.80 L 354.20 268.10 L 352.90 265.00 L 352.10 262.10 L 351.80 259.30 L 352.00 256.50 L 352.60 253.90 L 353.70 251.50 L 355.20 249.30 L 357.20 247.50 L 359.50 246.00 L 362.10 244.80 L 365.00 244.00 L 368.30 243.60 L 375.10 243.90 L 378.60 244.70 L 385.50 247.20 L 389.00 249.00 L 392.30 251.10 L 397.90 255.80 L 400.30 258.50 L 404.00 264.20 L 405.30 267.30 L 406.10 270.20 L 406.40 273.00 L 406.20 275.80 L 405.60 278.40 L 404.50 280.80 L 402.90 283.00 L 401.00 284.80 L 398.70 286.30 L 396.10 287.50 L 393.20 288.30 L 388.00 288.80 Z M 370.20 245.60 L 365.50 246.00 L 362.90 246.70 L 360.60 247.70 L 358.50 249.00 L 356.80 250.60 L 355.50 252.50 L 354.50 254.60 L 354.00 256.90 L 353.80 259.30 L 354.80 264.40 L 356.00 267.20 L 359.50 272.60 L 361.80 275.10 L 367.10 279.60 L 370.20 281.60 L 376.80 284.70 L 383.40 286.40 L 386.60 286.70 L 389.70 286.70 L 395.40 285.60 L 397.70 284.60 L 399.70 283.30 L 401.40 281.70 L 402.80 279.80 L 403.70 277.70 L 404.30 275.40 L 404.40 273.00 L 403.40 267.90 L 402.20 265.10 L 398.80 259.80 L 396.50 257.20 L 391.10 252.70 L 388.00 250.70 L 383.50 248.50 L 379.10 246.90 L 374.50 245.90 L 370.20 245.60 Z" fill="#333333" fill-rule="nonzero" group-id="10,35,40" node-id="311" stroke="none" target-height="45.19998" target-width="54.600006" target-x="351.8" target-y="243.6"></path></g></g></g><g node-id="434"><g node-id="459"><g node-id="464"><g node-id="468"><path d="M 742.80 238.10 L 743.90 240.50 L 744.60 243.00 L 745.00 245.70 L 744.90 248.50 L 744.30 252.20 L 743.10 256.00 L 741.20 260.10 L 738.80 263.90 L 735.90 267.70 L 732.30 271.50 L 728.40 275.00 L 724.00 278.30 L 719.10 281.50 L 713.90 284.20 L 708.90 286.30 L 703.90 287.90 L 698.80 289.10 L 694.00 289.70 L 689.50 289.90 L 685.10 289.50 L 681.10 288.60 L 677.60 287.30 L 675.10 286.00 L 673.00 284.30 L 671.20 282.50 L 669.70 280.30 L 668.60 277.90 L 667.90 275.40 L 667.60 272.80 L 667.60 270.00 L 668.20 266.30 L 669.40 262.40 L 671.30 258.40 L 673.70 254.60 L 676.60 250.80 L 680.20 246.90 L 684.10 243.40 L 688.50 240.10 L 693.40 237.00 L 698.60 234.30 L 703.60 232.10 L 708.60 230.50 L 713.70 229.30 L 718.50 228.70 L 723.00 228.60 L 727.50 229.00 L 731.40 229.80 L 734.90 231.10 L 739.50 234.10 L 741.30 236.00 L 742.80 238.10 Z" fill="#64e6b4" fill-rule="nonzero" group-id="11,36,41,45" node-id="324" stroke="none" target-height="61.299988" target-width="77.400024" target-x="667.6" target-y="228.6"></path></g><path d="M 690.50 290.90 L 684.70 290.50 L 680.50 289.50 L 676.90 288.10 L 674.40 286.70 L 672.20 285.00 L 670.40 283.00 L 668.90 280.80 L 667.70 278.40 L 667.00 275.80 L 666.60 273.10 L 666.60 270.20 L 667.20 266.40 L 668.40 262.30 L 670.50 257.90 L 673.00 253.90 L 676.10 249.90 L 679.70 246.00 L 683.70 242.50 L 688.10 239.20 L 692.90 236.10 L 698.20 233.40 L 703.40 231.20 L 708.50 229.50 L 713.70 228.40 L 718.60 227.80 L 723.30 227.60 L 727.90 228.10 L 731.90 229.00 L 735.50 230.40 L 738.10 231.80 L 740.20 233.50 L 742.10 235.40 L 743.70 237.70 L 744.80 240.10 L 745.60 242.70 L 746.00 245.40 L 745.90 248.40 L 745.30 252.20 L 744.10 256.20 L 742.10 260.30 L 739.70 264.30 L 736.80 268.20 L 733.10 272.20 L 729.20 275.80 L 724.70 279.20 L 719.60 282.40 L 714.70 284.90 L 709.80 287.00 L 704.90 288.70 L 699.90 289.90 L 695.10 290.60 L 690.50 290.90 Z M 722.10 229.60 L 717.80 229.80 L 713.20 230.50 L 708.40 231.60 L 703.70 233.20 L 698.80 235.30 L 693.90 237.80 L 689.20 240.80 L 685.00 244.00 L 681.10 247.40 L 677.60 251.20 L 674.70 255.00 L 672.20 258.90 L 670.30 262.90 L 669.20 266.70 L 668.60 270.20 L 668.90 275.30 L 670.60 279.80 L 673.60 283.50 L 677.90 286.40 L 681.30 287.60 L 685.10 288.50 L 689.60 288.90 L 694.10 288.70 L 698.90 288.10 L 703.90 286.90 L 708.80 285.30 L 713.70 283.20 L 718.60 280.60 L 723.40 277.60 L 727.70 274.30 L 731.50 270.90 L 735.00 267.20 L 737.90 263.50 L 740.20 259.80 L 742.10 255.90 L 743.30 252.10 L 743.90 248.60 L 743.70 243.30 L 741.90 238.60 L 740.40 236.50 L 738.60 234.70 L 736.50 233.10 L 734.10 231.80 L 730.50 230.60 L 726.60 229.80 L 722.10 229.60 Z" fill="#333333" fill-rule="nonzero" group-id="11,36,41" node-id="327" stroke="none" target-height="63.299988" target-width="79.400024" target-x="666.6" target-y="227.6"></path></g><g node-id="465"><g node-id="469"><path d="M 718.80 252.00 L 719.80 254.20 L 720.40 256.70 L 720.50 259.30 L 720.20 261.90 L 719.50 264.70 L 718.30 267.70 L 714.70 273.10 L 712.30 275.80 L 706.80 280.40 L 703.70 282.40 L 700.30 284.20 L 693.60 286.60 L 690.10 287.30 L 683.60 287.70 L 680.40 287.30 L 677.60 286.50 L 675.20 285.50 L 673.00 284.00 L 671.20 282.30 L 669.70 280.30 L 668.70 278.10 L 668.10 275.60 L 668.00 273.00 L 668.30 270.30 L 669.00 267.60 L 670.30 264.60 L 673.80 259.10 L 676.20 256.50 L 681.70 251.90 L 684.90 249.80 L 688.20 248.10 L 695.00 245.70 L 698.40 244.90 L 704.90 244.60 L 708.10 245.00 L 710.90 245.80 L 713.30 246.80 L 715.50 248.30 L 717.30 250.00 L 718.80 252.00 Z" fill="#40cf99" fill-rule="nonzero" group-id="11,36,42,46" node-id="334" stroke="none" target-height="43.100006" target-width="52.5" target-x="668" target-y="244.6"></path></g><path d="M 685.30 288.80 L 680.20 288.30 L 677.30 287.50 L 674.70 286.30 L 672.40 284.80 L 670.40 283.00 L 668.90 280.80 L 667.80 278.40 L 667.20 275.80 L 667.00 273.00 L 667.30 270.20 L 668.10 267.30 L 669.40 264.20 L 673.00 258.50 L 675.50 255.80 L 681.10 251.10 L 684.40 249.00 L 691.50 245.70 L 695.00 244.60 L 702.00 243.60 L 708.40 244.10 L 711.30 244.90 L 713.80 246.00 L 716.20 247.50 L 718.10 249.30 L 719.70 251.50 L 720.80 254.00 L 721.40 256.50 L 721.50 259.30 L 721.20 262.10 L 720.40 265.00 L 719.20 267.90 L 715.70 273.50 L 710.60 278.80 L 707.60 281.10 L 704.20 283.30 L 699.50 285.70 L 694.80 287.40 L 691.50 288.10 L 685.30 288.80 Z M 703.30 245.60 L 699.00 245.90 L 694.50 246.80 L 690.00 248.40 L 685.40 250.70 L 682.30 252.70 L 676.90 257.20 L 674.60 259.70 L 671.20 265.10 L 670.00 267.90 L 669.00 273.00 L 669.10 275.40 L 669.70 277.70 L 670.60 279.80 L 672.00 281.70 L 673.70 283.30 L 675.70 284.60 L 680.60 286.30 L 683.70 286.70 L 690.00 286.40 L 693.40 285.70 L 699.90 283.30 L 703.20 281.60 L 706.40 279.60 L 711.70 275.10 L 714.00 272.50 L 717.30 267.40 L 718.50 264.70 L 719.50 259.60 L 719.50 257.10 L 718.90 254.70 L 717.90 252.50 L 716.40 250.40 L 714.40 248.70 L 712.10 247.30 L 709.40 246.30 L 706.50 245.80 L 703.30 245.60 Z" fill="#333333" fill-rule="nonzero" group-id="11,36,42" node-id="337" stroke="none" target-height="45.19998" target-width="54.5" target-x="667" target-y="243.6"></path></g></g></g><g node-id="435"><path d="M 578.10 358.50 L 588.40 355.90 L 598.40 352.80 L 607.90 349.20 L 617.10 345.10 L 626.10 340.50 L 634.60 335.50 L 642.70 330.00 L 650.30 324.20 L 657.50 317.80 L 664.20 311.20 L 670.30 304.20 L 675.90 296.90 L 680.00 290.70 L 683.70 284.40 L 687.00 278.00 L 689.90 271.40 L 692.40 264.60 L 694.50 257.60 L 696.10 250.60 L 697.30 243.40 L 698.00 236.10 L 698.30 228.60 L 698.00 221.10 L 697.30 213.90 L 696.10 206.70 L 694.50 199.70 L 692.50 192.90 L 690.00 186.10 L 687.20 179.60 L 683.90 173.20 L 680.30 166.90 L 676.30 160.80 L 670.80 153.50 L 664.70 146.60 L 658.20 140.00 L 651.10 133.60 L 643.60 127.80 L 635.70 122.30 L 627.30 117.30 L 618.40 112.60 L 609.40 108.50 L 600.00 104.90 L 590.20 101.70 L 580.00 99.10 L 569.70 97.00 L 559.10 95.50 L 548.30 94.60 L 537.10 94.30 L 526.00 94.60 L 515.10 95.50 L 504.60 97.00 L 494.30 99.10 L 484.10 101.70 L 474.30 104.90 L 464.90 108.50 L 455.80 112.60 L 446.90 117.30 L 438.60 122.30 L 430.70 127.80 L 423.20 133.60 L 416.10 140.00 L 409.50 146.60 L 403.50 153.50 L 398.00 160.80 L 394.00 166.90 L 390.30 173.20 L 387.10 179.60 L 384.20 186.10 L 381.80 192.90 L 379.70 199.70 L 378.10 206.70 L 377.00 213.90 L 376.30 221.10 L 376.00 228.60 L 376.30 236.10 L 377.00 243.40 L 378.20 250.60 L 379.80 257.60 L 381.90 264.60 L 384.40 271.40 L 387.30 278.00 L 390.60 284.40 L 394.30 290.70 L 398.40 296.90 L 404.00 304.20 L 410.10 311.10 L 416.70 317.80 L 424.00 324.10 L 431.50 330.00 L 439.60 335.40 L 448.10 340.50 L 457.10 345.10 L 466.20 349.20 L 475.80 352.80 L 485.70 355.90 L 496.10 358.40 L 505.90 360.30 L 516.10 361.70 L 526.50 362.50 L 537.10 362.80 L 547.80 362.50 L 558.10 361.70 L 568.20 360.30 L 578.10 358.50 Z" fill="#f8e5da" fill-rule="nonzero" group-id="12" node-id="344" stroke="none" target-height="268.5" target-width="322.3" target-x="376" target-y="94.3"></path><path d="M 537.10 94.30 L 548.30 94.60 L 559.10 95.50 L 569.70 97.00 L 580.00 99.10 L 590.20 101.80 L 600.00 104.90 L 609.40 108.50 L 618.40 112.60 L 627.30 117.30 L 635.70 122.30 L 643.60 127.80 L 651.10 133.60 L 658.20 140.00 L 664.70 146.60 L 670.80 153.50 L 676.30 160.80 L 680.30 166.90 L 683.90 173.20 L 687.20 179.60 L 690.00 186.10 L 692.50 192.90 L 694.50 199.70 L 696.10 206.70 L 697.30 213.90 L 698.00 221.10 L 698.30 228.60 L 698.00 236.10 L 697.30 243.40 L 696.10 250.60 L 694.50 257.60 L 692.40 264.60 L 689.90 271.40 L 687.00 278.00 L 683.70 284.40 L 680.00 290.70 L 675.90 296.90 L 670.30 304.20 L 664.20 311.20 L 657.50 317.80 L 650.30 324.20 L 642.70 330.00 L 634.60 335.50 L 626.10 340.50 L 617.10 345.10 L 607.90 349.20 L 598.40 352.80 L 588.40 355.90 L 578.10 358.50 L 568.20 360.30 L 558.10 361.70 L 547.80 362.50 L 537.10 362.80 L 526.50 362.50 L 516.10 361.70 L 505.90 360.30 L 496.10 358.40 L 485.70 355.90 L 475.80 352.80 L 466.20 349.20 L 457.10 345.10 L 448.10 340.50 L 439.60 335.40 L 431.50 330.00 L 424.00 324.10 L 416.70 317.80 L 410.10 311.10 L 403.90 304.20 L 398.40 296.90 L 394.30 290.70 L 390.60 284.40 L 387.30 278.00 L 384.40 271.40 L 381.90 264.60 L 379.80 257.60 L 378.20 250.60 L 377.00 243.40 L 376.30 236.10 L 376.00 228.60 L 376.30 221.10 L 377.00 213.90 L 378.10 206.70 L 379.70 199.70 L 381.80 192.90 L 384.20 186.10 L 387.10 179.60 L 390.30 173.20 L 394.00 166.90 L 398.00 160.80 L 403.50 153.50 L 409.50 146.60 L 416.10 140.00 L 423.20 133.60 L 430.70 127.80 L 438.60 122.30 L 446.90 117.30 L 455.80 112.60 L 464.90 108.50 L 474.30 104.90 L 484.10 101.70 L 494.30 99.10 L 504.60 97.00 L 515.10 95.50 L 526.00 94.60 L 537.10 94.30 M 537.10 92.30 L 526.20 92.60 L 515.50 93.50 L 505.00 94.90 L 494.80 96.90 L 484.60 99.50 L 474.70 102.60 L 465.10 106.20 L 455.80 110.40 L 446.70 115.10 L 438.10 120.30 L 429.80 125.90 L 421.90 132.10 L 415.80 137.40 L 410.20 143.00 L 405.00 148.60 L 400.20 154.50 L 395.80 160.40 L 391.70 166.70 L 388.00 173.10 L 384.80 179.70 L 382.00 186.30 L 379.60 193.10 L 377.60 200.00 L 376.00 207.00 L 374.90 214.10 L 374.20 221.30 L 374.00 228.60 L 374.30 236.00 L 375.00 243.30 L 376.10 250.50 L 377.70 257.60 L 379.80 264.60 L 382.30 271.40 L 385.10 278.10 L 388.40 284.60 L 392.10 291.00 L 396.20 297.20 L 401.80 304.60 L 407.90 311.80 L 414.60 318.60 L 421.90 325.10 L 429.50 331.10 L 437.70 336.60 L 446.30 341.80 L 455.50 346.60 L 464.90 350.80 L 474.70 354.50 L 484.90 357.70 L 495.70 360.40 L 505.80 362.30 L 516.10 363.70 L 526.60 364.60 L 537.10 364.80 L 547.70 364.60 L 558.10 363.70 L 568.30 362.30 L 578.50 360.40 L 589.20 357.70 L 599.50 354.50 L 609.30 350.80 L 618.70 346.60 L 627.90 341.90 L 636.50 336.70 L 644.70 331.10 L 652.30 325.10 L 659.60 318.60 L 666.30 311.80 L 672.50 304.70 L 678.00 297.20 L 682.10 291.00 L 685.80 284.60 L 689.10 278.10 L 692.00 271.40 L 694.50 264.60 L 696.50 257.60 L 698.10 250.50 L 699.30 243.30 L 700.00 236.00 L 700.30 228.60 L 700.00 221.30 L 699.30 214.10 L 698.20 207.00 L 696.70 200.00 L 694.70 193.10 L 692.30 186.30 L 689.50 179.70 L 686.20 173.10 L 682.60 166.70 L 678.50 160.40 L 674.10 154.50 L 669.30 148.60 L 664.10 143.00 L 658.40 137.40 L 652.30 132.10 L 644.40 125.90 L 636.20 120.30 L 627.50 115.10 L 618.50 110.40 L 609.20 106.20 L 599.60 102.60 L 589.70 99.50 L 579.50 96.90 L 569.20 94.90 L 558.70 93.50 L 548.00 92.60 L 537.10 92.30 Z" fill="#333333" fill-rule="nonzero" group-id="12" node-id="346" stroke="none" target-height="272.5" target-width="326.3" target-x="374" target-y="92.3"></path></g><path d="M 500.40 342.60 L 500.10 340.50 L 499.30 338.40 L 498.00 336.40 L 494.00 333.00 L 491.30 331.40 L 485.10 329.00 L 477.60 327.40 L 469.30 326.80 L 465.00 326.90 L 457.30 328.00 L 453.70 328.90 L 447.50 331.30 L 444.80 332.90 L 440.80 336.20 L 454.90 344.00 L 462.30 347.50 L 477.80 353.40 L 485.90 355.90 L 490.20 354.30 L 493.70 352.40 L 496.40 350.30 L 498.20 348.40 L 499.40 346.50 L 500.10 344.60 L 500.40 342.60 Z" fill="#f2b7b6" fill-rule="nonzero" node-id="349" stroke="none" target-height="29.100006" target-width="59.600006" target-x="440.8" target-y="326.8"></path><path d="M 605.00 326.80 L 596.60 327.40 L 592.90 328.00 L 585.90 330.10 L 580.20 333.00 L 576.30 336.40 L 574.90 338.40 L 574.10 340.50 L 573.90 342.60 L 574.10 344.60 L 574.80 346.50 L 576.00 348.40 L 577.80 350.30 L 580.60 352.40 L 584.00 354.30 L 588.30 355.90 L 596.40 353.40 L 611.90 347.50 L 619.40 344.00 L 633.40 336.20 L 629.50 332.90 L 626.70 331.30 L 620.60 328.90 L 613.20 327.30 L 605.00 326.80 Z" fill="#f2b7b6" fill-rule="nonzero" node-id="351" stroke="none" target-height="29.100006" target-width="59.5" target-x="573.9" target-y="326.8"></path><g node-id="436"><path d="M 437.10 226.60 L 443.60 235.60 L 443.60 222.40 L 459.50 232.90 L 456.70 210.10 L 443.40 220.90 L 437.10 226.60 Z" fill="#333333" fill-rule="nonzero" group-id="13" node-id="355" stroke="none" target-height="25.5" target-width="22.399994" target-x="437.1" target-y="210.1"></path><path d="M 636.60 226.20 L 630.10 220.30 L 616.50 209.30 L 613.90 232.90 L 629.80 222.40 L 629.80 235.60 L 636.60 226.20 Z" fill="#333333" fill-rule="nonzero" group-id="13" node-id="357" stroke="none" target-height="26.300003" target-width="22.699951" target-x="613.9" target-y="209.3"></path><path d="M 537.10 180.60 L 529.90 180.90 L 522.80 181.50 L 515.90 182.60 L 509.10 184.10 L 495.80 188.30 L 483.00 193.80 L 474.80 198.20 L 466.90 203.00 L 459.10 208.30 L 480.40 230.60 L 482.00 195.40 L 504.80 230.60 L 513.10 193.10 L 536.70 233.60 L 558.40 191.70 L 568.50 230.60 L 591.60 195.70 L 592.90 230.60 L 613.60 207.20 L 605.90 202.10 L 598.10 197.40 L 590.00 193.20 L 581.80 189.60 L 573.30 186.50 L 564.50 184.00 L 557.90 182.50 L 551.10 181.50 L 544.20 180.80 L 537.10 180.60 Z" fill="#333333" fill-rule="nonzero" group-id="13" node-id="359" stroke="none" target-height="53" target-width="154.49997" target-x="459.1" target-y="180.6"></path></g><g node-id="437"><path d="M 537.10 94.30 L 526.00 94.60 L 515.10 95.50 L 504.60 97.00 L 494.30 99.10 L 484.10 101.70 L 474.30 104.90 L 464.90 108.50 L 455.80 112.60 L 446.90 117.30 L 438.60 122.30 L 430.70 127.80 L 423.20 133.60 L 416.10 140.00 L 409.50 146.60 L 403.50 153.50 L 398.00 160.80 L 394.00 166.90 L 390.30 173.20 L 387.10 179.60 L 384.20 186.10 L 381.80 192.90 L 379.70 199.70 L 378.10 206.70 L 377.00 213.90 L 376.30 221.10 L 376.00 228.60 L 376.20 235.90 L 376.90 243.10 L 378.10 250.20 L 379.70 257.10 L 381.70 264.00 L 384.10 270.60 L 386.90 277.20 L 390.10 283.60 L 398.10 271.90 L 407.20 259.80 L 420.30 244.10 L 434.90 228.80 L 442.60 221.60 L 450.70 214.70 L 459.20 208.30 L 467.90 202.40 L 476.90 197.00 L 483.90 193.40 L 491.00 190.20 L 498.30 187.40 L 505.70 185.00 L 513.30 183.10 L 521.10 181.80 L 529.00 180.90 L 537.10 180.60 L 545.30 180.90 L 553.20 181.80 L 560.90 183.10 L 568.50 185.00 L 576.00 187.40 L 583.20 190.20 L 590.40 193.40 L 597.40 197.00 L 606.40 202.40 L 615.10 208.30 L 623.50 214.70 L 631.60 221.60 L 639.40 228.80 L 654.00 244.10 L 667.10 259.80 L 676.10 271.90 L 684.20 283.60 L 687.40 277.20 L 690.20 270.60 L 692.60 264.00 L 694.60 257.10 L 696.20 250.20 L 697.30 243.10 L 698.00 235.90 L 698.20 228.60 L 698.00 221.10 L 697.30 213.90 L 696.10 206.70 L 694.50 199.70 L 692.50 192.90 L 690.00 186.10 L 687.20 179.60 L 683.90 173.20 L 680.30 166.90 L 676.20 160.80 L 670.80 153.50 L 664.70 146.60 L 658.20 140.00 L 651.10 133.60 L 643.60 127.80 L 635.70 122.30 L 627.30 117.30 L 618.40 112.60 L 609.40 108.50 L 600.00 104.90 L 590.20 101.70 L 580.00 99.10 L 569.70 97.00 L 559.10 95.50 L 548.30 94.60 L 537.10 94.30 Z" fill="#64e6b4" fill-rule="nonzero" group-id="14" node-id="364" stroke="none" target-height="189.3" target-width="322.2" target-x="376" target-y="94.3"></path><path d="M 390.00 285.50 L 385.90 277.40 L 383.00 270.60 L 380.60 263.80 L 378.60 257.00 L 377.00 250.00 L 375.90 242.90 L 375.20 235.80 L 375.00 228.60 L 375.30 221.10 L 376.00 213.80 L 377.10 206.60 L 378.70 199.60 L 380.80 192.70 L 383.30 185.90 L 386.20 179.20 L 389.40 172.80 L 393.10 166.50 L 397.20 160.30 L 402.70 153.00 L 408.80 146.00 L 415.40 139.30 L 422.50 133.00 L 430.10 127.10 L 438.00 121.60 L 446.40 116.50 L 455.40 111.80 L 464.50 107.60 L 474.00 104.00 L 483.80 100.80 L 494.10 98.10 L 504.40 96.10 L 515.00 94.60 L 525.90 93.60 L 537.10 93.30 L 548.30 93.60 L 559.20 94.60 L 569.90 96.10 L 580.20 98.10 L 590.40 100.80 L 600.30 104.00 L 609.80 107.60 L 618.90 111.80 L 627.80 116.50 L 636.20 121.60 L 644.20 127.10 L 651.70 133.00 L 658.90 139.30 L 665.50 146.00 L 671.60 153.00 L 677.10 160.30 L 681.20 166.50 L 684.80 172.80 L 688.10 179.20 L 691.00 185.90 L 693.50 192.70 L 695.50 199.60 L 697.10 206.60 L 698.30 213.80 L 699.00 221.10 L 699.30 228.60 L 699.00 235.80 L 698.40 242.90 L 697.30 250.00 L 695.70 257.00 L 693.70 263.80 L 691.30 270.60 L 688.40 277.40 L 684.30 285.50 L 675.20 272.40 L 666.20 260.30 L 653.00 244.50 L 638.50 229.30 L 630.80 222.10 L 622.70 215.30 L 614.30 208.90 L 605.70 203.10 L 596.80 197.80 L 589.80 194.20 L 582.80 191.00 L 575.60 188.30 L 568.20 186.00 L 560.70 184.10 L 553.00 182.70 L 545.20 181.90 L 537.10 181.60 L 529.10 181.90 L 521.20 182.70 L 513.60 184.10 L 506.10 186.00 L 498.70 188.30 L 491.50 191.00 L 484.40 194.20 L 477.50 197.80 L 468.60 203.10 L 459.90 208.90 L 451.50 215.30 L 443.50 222.10 L 435.80 229.30 L 421.20 244.50 L 408.10 260.30 L 399.00 272.40 L 390.00 285.50 Z M 537.10 179.60 L 545.20 179.90 L 553.10 180.70 L 560.80 182.10 L 568.30 183.90 L 575.70 186.20 L 582.90 189.00 L 590.00 192.10 L 597.00 195.60 L 605.90 200.90 L 614.60 206.70 L 623.00 213.00 L 631.10 219.80 L 638.90 226.90 L 646.40 234.30 L 653.50 242.00 L 666.70 257.80 L 675.90 269.90 L 684.10 281.60 L 687.20 275.20 L 689.80 268.80 L 692.10 262.30 L 693.90 255.70 L 695.40 249.00 L 696.40 242.30 L 697.00 235.50 L 697.20 228.60 L 697.00 221.20 L 696.30 214.00 L 695.10 206.90 L 693.50 200.00 L 691.50 193.20 L 689.10 186.50 L 686.20 180.00 L 683.00 173.60 L 679.40 167.40 L 675.30 161.40 L 669.90 154.10 L 663.90 147.20 L 657.40 140.70 L 650.30 134.40 L 642.90 128.60 L 635.00 123.20 L 626.70 118.10 L 617.90 113.50 L 608.90 109.40 L 599.50 105.80 L 589.80 102.70 L 579.60 100.10 L 569.40 98.00 L 559.00 96.50 L 548.20 95.60 L 537.10 95.30 L 526.00 95.60 L 515.30 96.50 L 504.80 98.00 L 494.60 100.10 L 484.50 102.70 L 474.70 105.80 L 465.40 109.40 L 456.40 113.50 L 447.60 118.10 L 439.20 123.20 L 431.40 128.60 L 424.00 134.40 L 416.90 140.70 L 410.30 147.20 L 404.40 154.10 L 398.90 161.40 L 394.90 167.40 L 391.20 173.60 L 388.00 180.00 L 385.20 186.50 L 382.70 193.20 L 380.70 200.00 L 379.10 206.90 L 378.00 214.00 L 377.30 221.20 L 377.00 228.60 L 377.20 235.50 L 377.80 242.30 L 378.90 249.00 L 380.30 255.70 L 382.20 262.30 L 384.40 268.80 L 387.10 275.20 L 390.20 281.60 L 398.40 269.90 L 407.50 257.80 L 420.70 242.00 L 427.90 234.30 L 435.30 226.90 L 443.10 219.80 L 451.20 213.00 L 459.60 206.70 L 468.30 200.90 L 477.30 195.60 L 484.20 192.10 L 491.30 189.00 L 498.50 186.20 L 506.00 183.90 L 513.50 182.10 L 521.20 180.70 L 529.00 179.90 L 537.10 179.60 Z" fill="#333333" fill-rule="nonzero" group-id="14" node-id="366" stroke="none" target-height="192.2" target-width="324.3" target-x="375" target-y="93.3"></path></g><g node-id="438"><path d="M 568.40 307.40 L 568.10 309.40 L 567.30 311.30 L 566.00 313.30 L 562.10 316.70 L 559.20 318.30 L 552.80 320.70 L 549.10 321.60 L 543.30 322.50 L 537.10 322.80 L 530.90 322.50 L 525.20 321.60 L 521.40 320.70 L 515.00 318.30 L 509.90 315.00 L 508.20 313.30 L 506.90 311.30 L 506.10 309.40 L 505.90 307.40 L 506.10 305.40 L 506.90 303.40 L 508.20 301.50 L 512.20 298.10 L 515.00 296.50 L 521.40 294.10 L 525.20 293.10 L 530.90 292.30 L 537.10 292.00 L 543.30 292.30 L 549.10 293.10 L 552.80 294.10 L 559.20 296.50 L 562.10 298.10 L 566.00 301.50 L 567.30 303.40 L 568.10 305.40 L 568.40 307.40 Z" fill="#9a2e36" fill-rule="nonzero" group-id="15" node-id="371" stroke="none" target-height="30.799988" target-width="62.50003" target-x="505.9" target-y="292"></path><path d="M 561.60 315.10 L 561.30 316.40 L 560.30 317.60 L 558.30 319.00 L 553.40 320.90 L 549.80 321.70 L 544.30 322.50 L 537.80 322.80 L 531.30 322.50 L 525.70 321.70 L 522.20 320.90 L 517.20 319.00 L 515.30 317.60 L 514.30 316.40 L 513.90 315.10 L 514.30 313.80 L 515.30 312.50 L 517.20 311.20 L 519.40 310.20 L 525.70 308.40 L 531.30 307.70 L 537.80 307.40 L 544.30 307.70 L 549.80 308.40 L 553.40 309.30 L 558.30 311.20 L 560.30 312.50 L 561.30 313.80 L 561.60 315.10 Z" fill="#de8381" fill-rule="nonzero" group-id="15" node-id="373" stroke="none" target-height="15.399994" target-width="47.69995" target-x="513.9" target-y="307.4"></path><path d="M 545.50 292.50 L 537.10 292.00 L 528.80 292.50 L 528.80 296.30 L 545.50 296.30 L 545.50 292.50 Z" fill="#fcfcfc" fill-rule="nonzero" group-id="15" node-id="375" stroke="none" target-height="4.299988" target-width="16.700012" target-x="528.8" target-y="292"></path></g><g node-id="439"><path d="M 712.20 449.00 L 589.80 376.50 L 585.20 379.40 L 580.00 382.00 L 574.40 384.30 L 568.60 386.20 L 556.30 389.00 L 550.00 389.90 L 537.60 390.40 L 525.20 389.90 L 518.90 389.00 L 506.60 386.20 L 500.80 384.30 L 495.20 382.00 L 490.00 379.40 L 485.40 376.50 L 408.30 401.10 L 407.40 405.40 L 407.40 410.70 L 408.60 415.60 L 409.70 418.00 L 411.30 420.50 L 415.90 425.80 L 418.60 430.00 L 421.10 434.70 L 423.40 440.10 L 424.70 443.90 L 426.40 451.80 L 426.70 455.80 L 426.60 459.60 L 426.10 463.20 L 453.30 457.00 L 473.50 451.60 L 480.80 499.90 L 594.60 499.90 L 595.30 489.80 L 596.30 480.80 L 600.20 456.60 L 695.20 506.30 L 694.60 502.70 L 694.50 499.20 L 695.60 492.60 L 697.70 486.40 L 699.90 482.20 L 702.30 478.40 L 708.90 469.70 L 711.30 464.60 L 712.30 460.60 L 712.70 457.10 L 712.70 453.70 L 712.20 449.00 Z" fill="#64e6b4" fill-rule="nonzero" group-id="16" node-id="380" stroke="none" target-height="129.79999" target-width="305.30002" target-x="407.4" target-y="376.5"></path><path d="M 695.20 507.30 L 600.90 458.10 L 597.20 481.30 L 596.30 490.00 L 595.60 499.90 L 595.30 500.60 L 594.60 500.80 L 480.70 500.80 L 480.10 500.60 L 479.70 500.00 L 472.70 452.90 L 453.10 458.10 L 426.30 464.20 L 425.40 463.90 L 425.10 463.00 L 425.60 459.30 L 425.70 455.50 L 425.40 451.60 L 424.60 447.70 L 422.40 440.10 L 420.10 434.80 L 417.60 430.30 L 415.00 426.30 L 410.50 421.10 L 408.80 418.50 L 406.90 413.30 L 406.30 408.60 L 406.40 405.30 L 407.30 400.70 L 408.00 400.10 L 485.10 375.50 L 486.00 375.60 L 490.30 378.40 L 495.30 380.90 L 500.80 383.20 L 512.40 386.70 L 525.00 388.80 L 537.60 389.40 L 543.90 389.30 L 550.20 388.80 L 562.70 386.70 L 574.40 383.20 L 579.90 380.90 L 584.80 378.40 L 589.20 375.60 L 590.30 375.60 L 713.00 448.40 L 713.60 451.40 L 713.60 457.40 L 713.20 461.00 L 712.20 465.10 L 709.70 470.30 L 704.00 477.70 L 701.00 482.40 L 698.70 486.70 L 697.00 490.90 L 696.00 494.90 L 695.50 498.70 L 695.60 502.40 L 696.10 506.60 L 695.20 507.30 Z M 600.20 455.60 L 693.80 504.40 L 693.50 500.20 L 693.80 496.00 L 694.80 491.50 L 696.40 486.90 L 698.80 482.10 L 702.10 477.00 L 707.90 469.40 L 710.10 465.10 L 711.00 461.60 L 711.50 458.50 L 711.70 452.90 L 711.30 449.60 L 589.80 377.70 L 585.30 380.40 L 580.30 383.00 L 574.70 385.30 L 563.00 388.80 L 550.40 390.90 L 537.60 391.40 L 531.20 391.30 L 524.80 390.90 L 512.10 388.70 L 500.40 385.20 L 494.80 382.90 L 489.80 380.40 L 485.30 377.60 L 409.10 401.80 L 408.20 407.10 L 408.80 412.80 L 409.80 416.00 L 412.30 420.20 L 416.40 424.90 L 419.10 428.90 L 421.60 433.40 L 423.90 438.70 L 425.80 444.30 L 427.20 450.20 L 427.70 454.20 L 427.70 458.10 L 427.40 461.90 L 453.70 455.90 L 473.20 450.60 L 474.30 451.00 L 478.30 475.90 L 481.60 498.80 L 593.60 498.80 L 594.70 485.50 L 596.20 473.90 L 599.20 456.40 L 599.70 455.60 L 600.20 455.60 Z" fill="#333333" fill-rule="nonzero" group-id="16" node-id="382" stroke="none" target-height="131.79999" target-width="307.3" target-x="406.3" target-y="375.5"></path></g><g node-id="440"><path d="M 695.10 199.00 L 694.00 195.00 L 692.20 190.50 L 689.50 185.30 L 686.40 180.40 L 682.70 175.10 L 678.10 169.50 L 673.20 164.20 L 667.60 158.90 L 661.40 153.60 L 654.80 148.70 L 647.70 144.00 L 635.60 137.30 L 629.10 132.50 L 626.40 130.00 L 622.20 124.90 L 619.60 120.90 L 613.10 109.20 L 610.80 105.40 L 607.90 101.60 L 603.10 97.00 L 596.70 92.70 L 587.90 88.70 L 582.60 86.90 L 573.60 85.00 L 565.20 84.70 L 561.70 85.00 L 556.50 86.00 L 552.20 87.40 L 548.20 89.20 L 542.50 92.40 L 539.90 93.20 L 537.10 93.50 L 534.40 93.20 L 531.80 92.40 L 526.00 89.20 L 522.10 87.40 L 517.70 86.00 L 512.60 85.00 L 505.10 84.70 L 496.40 85.70 L 486.40 88.70 L 477.50 92.70 L 471.10 97.00 L 466.40 101.60 L 463.50 105.40 L 461.10 109.20 L 454.70 120.90 L 452.10 124.90 L 447.80 130.00 L 442.20 134.90 L 438.60 137.30 L 426.60 144.00 L 419.40 148.70 L 412.90 153.60 L 406.60 158.90 L 401.10 164.20 L 396.20 169.50 L 391.60 175.10 L 387.80 180.40 L 384.80 185.30 L 382.10 190.50 L 380.30 195.00 L 379.20 199.00 L 378.30 204.70 L 377.80 210.00 L 377.90 214.70 L 378.30 219.00 L 379.20 223.30 L 380.50 227.10 L 382.10 230.40 L 384.00 233.30 L 386.30 236.00 L 389.00 238.10 L 391.90 239.90 L 395.10 241.20 L 398.50 242.10 L 402.20 242.50 L 406.20 242.50 L 410.60 241.90 L 414.70 240.90 L 419.20 239.40 L 424.00 237.30 L 429.20 234.60 L 441.90 222.60 L 462.50 206.00 L 475.40 197.30 L 481.50 193.90 L 487.30 191.10 L 493.30 188.80 L 499.70 186.80 L 506.30 185.10 L 513.80 183.60 L 531.30 181.00 L 539.10 180.70 L 552.40 182.30 L 568.00 185.10 L 574.60 186.80 L 580.90 188.80 L 586.90 191.10 L 592.80 193.90 L 598.90 197.30 L 611.80 206.00 L 632.40 222.60 L 645.10 234.60 L 650.20 237.30 L 655.00 239.40 L 659.50 240.90 L 663.70 241.90 L 668.10 242.50 L 672.10 242.50 L 675.70 242.10 L 679.10 241.20 L 682.40 239.90 L 685.30 238.10 L 687.90 236.00 L 690.20 233.30 L 692.20 230.40 L 693.80 227.10 L 695.00 223.30 L 695.90 219.00 L 696.40 214.70 L 696.40 210.00 L 696.00 204.70 L 695.10 199.00 Z" fill="#40cf99" fill-rule="nonzero" group-id="17" node-id="387" stroke="none" target-height="157.8" target-width="318.60004" target-x="377.8" target-y="84.7"></path><path d="M 670.50 243.60 L 666.60 243.30 L 662.50 242.70 L 658.10 241.50 L 649.30 238.00 L 644.60 235.40 L 632.00 223.60 L 611.20 206.70 L 598.10 198.00 L 592.00 194.60 L 586.20 191.90 L 580.20 189.50 L 574.00 187.60 L 567.40 186.00 L 552.10 183.20 L 539.00 181.70 L 531.40 182.00 L 514.30 184.50 L 506.80 186.00 L 500.30 187.60 L 494.00 189.60 L 488.00 191.90 L 482.20 194.70 L 476.10 198.10 L 463.00 206.80 L 442.20 223.60 L 429.70 235.40 L 424.20 238.40 L 419.00 240.60 L 414.00 242.10 L 409.00 243.20 L 404.30 243.50 L 400.00 243.30 L 393.80 241.80 L 388.40 238.90 L 386.00 237.00 L 382.00 232.20 L 380.40 229.40 L 378.80 225.40 L 377.60 220.80 L 377.00 215.70 L 376.80 210.50 L 377.20 204.90 L 378.20 198.80 L 379.40 194.50 L 381.40 189.70 L 384.20 184.30 L 387.50 179.10 L 391.40 173.70 L 396.10 168.10 L 401.10 162.80 L 406.70 157.50 L 413.00 152.30 L 419.50 147.40 L 426.40 142.90 L 438.50 136.10 L 442.30 133.50 L 445.30 131.00 L 448.10 128.20 L 452.40 122.60 L 461.30 106.90 L 463.70 103.40 L 466.60 99.90 L 471.40 95.60 L 477.60 91.50 L 486.00 87.70 L 496.10 84.80 L 504.90 83.70 L 512.60 84.00 L 519.40 85.40 L 526.40 88.30 L 532.10 91.50 L 534.60 92.20 L 537.10 92.40 L 539.70 92.20 L 542.10 91.50 L 547.80 88.30 L 554.80 85.40 L 561.60 84.00 L 565.30 83.70 L 573.70 84.00 L 578.10 84.80 L 582.90 86.00 L 592.80 89.60 L 599.80 93.40 L 602.90 95.60 L 607.60 99.90 L 610.60 103.40 L 612.90 106.90 L 621.80 122.60 L 626.10 128.20 L 628.90 131.00 L 632.00 133.50 L 635.70 136.10 L 647.80 142.90 L 654.70 147.40 L 661.30 152.30 L 667.50 157.50 L 673.10 162.80 L 678.10 168.10 L 682.80 173.70 L 686.80 179.10 L 690.00 184.20 L 692.90 189.60 L 694.80 194.50 L 696.00 198.70 L 697.00 204.90 L 697.40 210.50 L 697.30 215.70 L 696.60 220.80 L 695.40 225.30 L 693.80 229.40 L 692.20 232.20 L 688.30 237.00 L 685.90 238.90 L 682.50 240.90 L 678.80 242.40 L 674.80 243.30 L 670.50 243.60 Z M 506.80 85.70 L 502.40 85.90 L 497.50 86.60 L 492.40 87.70 L 486.70 89.60 L 478.70 93.20 L 472.70 97.10 L 468.10 101.20 L 465.30 104.50 L 463.00 107.90 L 454.00 123.80 L 449.60 129.60 L 446.70 132.50 L 443.50 135.10 L 439.60 137.80 L 426.80 145.10 L 419.50 149.80 L 412.90 154.80 L 406.60 160.20 L 401.10 165.60 L 396.40 170.80 L 391.90 176.40 L 388.30 181.60 L 385.40 186.40 L 382.80 191.40 L 381.10 195.60 L 380.20 199.20 L 379.20 205.00 L 378.80 210.40 L 378.90 215.30 L 379.50 220.20 L 380.60 224.50 L 382.10 228.30 L 383.60 231.00 L 387.30 235.50 L 389.50 237.30 L 394.60 240.00 L 400.40 241.40 L 404.50 241.60 L 408.90 241.20 L 413.70 240.20 L 418.40 238.70 L 423.30 236.60 L 428.60 233.80 L 440.90 222.10 L 461.80 205.20 L 475.10 196.40 L 481.30 192.90 L 487.30 190.10 L 493.40 187.70 L 499.80 185.70 L 506.50 184.00 L 521.90 181.30 L 535.10 179.60 L 543.10 180.00 L 560.30 182.50 L 567.80 184.00 L 574.40 185.70 L 580.80 187.70 L 586.90 190.10 L 592.90 192.90 L 599.10 196.30 L 612.40 205.10 L 633.30 222.10 L 645.70 233.80 L 650.90 236.60 L 655.90 238.70 L 660.50 240.20 L 665.30 241.20 L 669.70 241.60 L 673.80 241.40 L 676.90 240.80 L 679.70 240.00 L 684.70 237.30 L 688.90 233.40 L 690.60 231.00 L 692.10 228.30 L 693.60 224.50 L 694.70 220.20 L 695.30 215.30 L 695.40 210.40 L 695.00 205.00 L 694.10 199.20 L 693.10 195.60 L 691.40 191.40 L 688.90 186.40 L 686.00 181.60 L 682.30 176.40 L 677.90 170.80 L 673.10 165.50 L 667.60 160.20 L 661.30 154.80 L 654.70 149.80 L 647.50 145.10 L 634.60 137.80 L 630.70 135.10 L 627.60 132.50 L 624.70 129.60 L 620.20 123.80 L 611.20 107.90 L 608.90 104.50 L 606.10 101.20 L 601.50 97.00 L 595.60 93.20 L 587.50 89.60 L 582.40 87.90 L 573.60 86.00 L 565.50 85.70 L 562.00 86.00 L 556.90 86.90 L 552.70 88.30 L 548.70 90.10 L 542.80 93.30 L 540.00 94.20 L 537.10 94.40 L 534.20 94.20 L 531.40 93.30 L 526.10 90.40 L 519.50 87.60 L 515.80 86.60 L 511.60 85.90 L 506.80 85.70 Z" fill="#333333" fill-rule="nonzero" group-id="17" node-id="389" stroke="none" target-height="159.90001" target-width="320.60004" target-x="376.8" target-y="83.7"></path></g><g node-id="441"><path d="M 458.30 288.00 L 462.60 289.30 L 466.70 290.10 L 470.80 290.30 L 474.90 290.10 L 478.80 289.40 L 482.50 288.30 L 486.00 286.70 L 489.20 284.70 L 492.00 282.40 L 494.50 279.70 L 496.50 276.60 L 498.10 273.20 L 437.30 251.10 L 436.30 254.80 L 435.90 258.40 L 436.00 262.10 L 436.70 265.70 L 437.90 269.20 L 439.60 272.60 L 441.70 275.90 L 444.20 278.90 L 447.20 281.70 L 450.50 284.10 L 454.20 286.30 L 458.30 288.00 Z" fill="#e8f9ff" fill-rule="nonzero" group-id="18" node-id="394" stroke="none" target-height="39.19998" target-width="62.200012" target-x="435.9" target-y="251.1"></path><path d="M 470.90 291.30 L 466.70 291.00 L 462.30 290.30 L 457.90 289.00 L 453.70 287.10 L 449.90 285.00 L 446.50 282.40 L 443.40 279.50 L 440.80 276.40 L 438.70 273.10 L 436.90 269.50 L 435.70 265.80 L 435.00 262.10 L 434.90 258.30 L 435.30 254.50 L 436.70 249.80 L 499.30 272.60 L 497.40 277.10 L 495.30 280.30 L 492.70 283.10 L 489.80 285.50 L 486.60 287.50 L 482.90 289.10 L 479.10 290.30 L 475.10 291.00 L 470.90 291.30 Z M 458.60 287.10 L 462.70 288.30 L 466.60 289.00 L 470.50 289.30 L 474.40 289.10 L 478.10 288.50 L 481.60 287.50 L 485.00 286.10 L 488.00 284.30 L 490.70 282.20 L 493.10 279.70 L 495.10 276.90 L 496.80 273.80 L 437.90 252.40 L 437.10 255.80 L 436.90 259.30 L 437.10 262.70 L 437.90 266.10 L 439.10 269.40 L 440.70 272.70 L 442.80 275.70 L 445.20 278.50 L 448.10 281.10 L 451.30 283.40 L 454.70 285.40 L 458.60 287.10 Z" fill="#333333" fill-rule="nonzero" group-id="18" node-id="396" stroke="none" target-height="41.499985" target-width="64.399994" target-x="434.9" target-y="249.8"></path></g><g node-id="442"><path d="M 473.10 285.30 L 476.50 286.10 L 479.90 286.40 L 483.20 286.00 L 486.40 285.10 L 489.40 283.70 L 492.20 281.70 L 494.50 279.30 L 496.50 276.50 L 498.10 273.20 L 461.70 260.00 L 460.80 263.50 L 460.50 266.90 L 460.80 270.30 L 461.60 273.60 L 463.00 276.60 L 464.90 279.40 L 467.20 281.80 L 469.90 283.70 L 473.10 285.30 Z" fill="#40cf99" fill-rule="nonzero" group-id="19" node-id="401" stroke="none" target-height="26.399994" target-width="37.600006" target-x="460.5" target-y="260"></path><path d="M 479.50 287.40 L 476.20 287.10 L 472.80 286.20 L 470.30 285.10 L 466.00 282.00 L 462.60 277.90 L 460.40 273.00 L 459.50 267.70 L 460.00 262.30 L 461.10 258.70 L 499.30 272.60 L 497.80 276.30 L 496.20 278.70 L 492.40 282.80 L 490.10 284.40 L 485.00 286.60 L 479.50 287.40 Z M 462.40 261.30 L 461.60 264.70 L 461.50 268.10 L 462.00 271.40 L 463.20 274.70 L 464.30 276.90 L 467.40 280.60 L 471.20 283.30 L 473.50 284.30 L 476.60 285.10 L 479.70 285.40 L 482.70 285.10 L 485.70 284.30 L 488.50 283.00 L 491.00 281.30 L 493.30 279.20 L 495.20 276.70 L 496.80 273.80 L 462.40 261.30 Z" fill="#333333" fill-rule="nonzero" group-id="19" node-id="403" stroke="none" target-height="28.699982" target-width="39.799988" target-x="459.5" target-y="258.7"></path></g><g node-id="443"><path d="M 616.00 288.00 L 611.70 289.30 L 607.50 290.10 L 603.40 290.30 L 599.30 290.10 L 595.40 289.40 L 591.70 288.30 L 588.20 286.70 L 585.10 284.70 L 582.20 282.40 L 579.80 279.70 L 577.80 276.60 L 576.20 273.20 L 637.00 251.10 L 637.90 254.80 L 638.40 258.40 L 638.20 262.10 L 637.50 265.70 L 636.40 269.20 L 634.70 272.60 L 632.60 275.90 L 630.10 278.90 L 627.10 281.70 L 623.70 284.10 L 620.10 286.30 L 616.00 288.00 Z" fill="#e8f9ff" fill-rule="nonzero" group-id="20" node-id="408" stroke="none" target-height="39.19998" target-width="62.200012" target-x="576.2" target-y="251.1"></path><path d="M 603.30 291.30 L 599.10 291.00 L 595.10 290.30 L 591.30 289.10 L 587.70 287.50 L 584.40 285.50 L 581.50 283.10 L 579.00 280.20 L 576.90 277.10 L 574.90 272.60 L 637.50 249.80 L 638.90 254.50 L 639.30 258.30 L 639.20 262.10 L 638.50 265.80 L 637.30 269.50 L 635.60 273.10 L 633.40 276.40 L 630.80 279.50 L 627.70 282.40 L 624.30 285.00 L 620.50 287.10 L 616.30 289.00 L 611.90 290.30 L 607.60 291.00 L 603.30 291.30 Z M 577.50 273.80 L 579.10 276.90 L 581.10 279.70 L 583.50 282.20 L 586.30 284.30 L 589.30 286.10 L 592.70 287.50 L 596.20 288.50 L 599.80 289.10 L 603.70 289.30 L 607.60 289.00 L 611.60 288.30 L 615.60 287.10 L 619.50 285.40 L 623.00 283.40 L 626.20 281.10 L 629.00 278.50 L 631.50 275.70 L 633.50 272.70 L 635.20 269.40 L 636.40 266.10 L 637.10 262.70 L 637.40 259.30 L 637.10 255.80 L 636.30 252.40 L 577.50 273.80 Z" fill="#333333" fill-rule="nonzero" group-id="20" node-id="410" stroke="none" target-height="41.499985" target-width="64.39996" target-x="574.9" target-y="249.8"></path></g><g node-id="444"><path d="M 601.10 285.30 L 597.70 286.10 L 594.40 286.40 L 591.00 286.00 L 587.80 285.10 L 584.90 283.70 L 582.10 281.70 L 579.70 279.30 L 577.70 276.50 L 576.20 273.20 L 612.50 260.00 L 613.50 263.50 L 613.80 266.90 L 613.50 270.30 L 612.60 273.60 L 611.30 276.60 L 609.40 279.40 L 607.10 281.80 L 604.30 283.70 L 601.10 285.30 Z" fill="#40cf99" fill-rule="nonzero" group-id="21" node-id="415" stroke="none" target-height="26.399994" target-width="37.599976" target-x="576.2" target-y="260"></path><path d="M 594.70 287.40 L 591.70 287.20 L 588.80 286.50 L 585.90 285.40 L 583.50 284.00 L 581.30 282.40 L 577.80 278.40 L 576.40 276.10 L 574.90 272.60 L 613.10 258.70 L 614.20 262.30 L 614.80 267.70 L 613.90 273.00 L 611.60 277.90 L 608.30 282.00 L 604.00 285.10 L 601.50 286.20 L 598.10 287.10 L 594.70 287.40 Z M 577.50 273.80 L 579.10 276.80 L 581.20 279.50 L 583.80 281.80 L 586.70 283.60 L 589.00 284.50 L 593.70 285.40 L 598.40 285.00 L 600.80 284.30 L 603.00 283.30 L 606.90 280.60 L 609.90 276.90 L 611.10 274.70 L 612.20 271.40 L 612.70 268.10 L 612.60 264.70 L 611.90 261.30 L 577.50 273.80 Z" fill="#333333" fill-rule="nonzero" group-id="21" node-id="417" stroke="none" target-height="28.699982" target-width="39.899963" target-x="574.9" target-y="258.7"></path></g><path d="M 563.70 129.40 L 563.50 130.80 L 562.20 133.00 L 560.00 134.30 L 558.60 134.50 L 557.20 134.30 L 555.00 133.00 L 553.70 130.80 L 553.50 129.40 L 553.70 128.00 L 555.00 125.80 L 557.20 124.50 L 558.60 124.30 L 560.00 124.50 L 562.20 125.80 L 563.50 128.00 L 563.70 129.40 Z" fill="#333333" fill-rule="nonzero" node-id="420" stroke="none" target-height="10.199997" target-width="10.200012" target-x="553.5" target-y="124.3"></path><path d="M 522.30 129.40 L 522.10 130.80 L 520.80 133.00 L 518.60 134.30 L 517.20 134.50 L 514.60 133.80 L 512.80 132.00 L 512.30 130.80 L 512.10 129.40 L 512.80 126.90 L 514.60 125.00 L 517.20 124.30 L 518.60 124.50 L 520.80 125.80 L 522.10 128.00 L 522.30 129.40 Z" fill="#333333" fill-rule="nonzero" node-id="422" stroke="none" target-height="10.199997" target-width="10.200012" target-x="512.1" target-y="124.3"></path></svg>
